<svg width="1440" height="4458" viewBox="0 0 1440 4458" fill="none" xmlns="http://www.w3.org/2000/svg">
<g clip-path="url(#clip0_178_620)">
<rect width="1440" height="4458" fill="#194350"/>
<g style="mix-blend-mode:luminosity">
<circle cx="1374.5" cy="905.5" r="201.5" fill="#FF8882"/>
</g>
<path d="M152 95.5C401 48 814.597 678.571 1442.5 485" stroke="#FFC2B4" stroke-width="3" stroke-linecap="round"/>
<g opacity="0.09">
<path fill-rule="evenodd" clip-rule="evenodd" d="M599.127 238.534C599.204 238.56 599.281 238.578 599.358 238.59C599.442 238.788 599.551 239.044 599.678 239.343C599.988 240.074 600.406 241.062 600.837 242.094C601.715 244.197 602.602 246.364 602.798 246.985C603.04 247.752 603.296 248.273 603.576 248.629C603.721 248.814 603.888 248.974 604.084 249.096C604.182 249.157 604.286 249.208 604.395 249.245C604.4 249.247 604.405 249.248 604.409 249.25C604.969 249.461 605.48 249.373 605.8 249.266C605.971 249.208 606.109 249.138 606.207 249.082C606.257 249.053 606.299 249.026 606.333 249.004L606.341 248.998L611.287 245.914L617 250.294C617.084 250.359 617.176 250.413 617.273 250.455C617.96 250.755 618.624 250.859 619.25 250.774C619.874 250.689 620.369 250.426 620.738 250.131C621.099 249.842 621.344 249.519 621.497 249.278C621.575 249.155 621.633 249.047 621.674 248.963C621.695 248.922 621.712 248.886 621.725 248.857L621.741 248.818L621.747 248.803L621.75 248.797L621.751 248.794L621.752 248.791C621.782 248.716 621.805 248.639 621.821 248.559L627.036 222.265C627.053 222.181 627.061 222.095 627.061 222.009C627.061 221.239 626.771 220.507 626.089 220.063C625.506 219.683 624.856 219.667 624.446 219.698C624.003 219.732 623.594 219.841 623.32 219.928C623.177 219.974 623.057 220.018 622.971 220.051C622.927 220.068 622.892 220.082 622.865 220.093L622.845 220.102L593.596 231.576L593.593 231.577C593.574 231.584 593.55 231.593 593.522 231.604C593.465 231.626 593.389 231.657 593.3 231.697C593.128 231.775 592.885 231.898 592.636 232.068C592.239 232.341 591.324 233.086 591.478 234.317C591.601 235.299 592.274 235.902 592.684 236.192C592.909 236.351 593.122 236.465 593.278 236.539C593.35 236.573 593.5 236.634 593.565 236.661L593.582 236.668L599.127 238.534ZM623.869 222.519L623.865 222.521C623.85 222.527 623.836 222.533 623.821 222.539L594.536 234.027C594.521 234.033 594.506 234.038 594.49 234.044L594.474 234.05C594.455 234.057 594.424 234.07 594.384 234.088C594.362 234.098 594.338 234.109 594.314 234.121C594.347 234.14 594.379 234.156 594.406 234.169C594.433 234.182 594.454 234.19 594.465 234.195L599.964 236.047C600.065 236.08 600.159 236.125 600.245 236.179L618.404 225.549L618.421 225.539C618.435 225.531 618.452 225.521 618.473 225.509C618.514 225.486 618.571 225.455 618.639 225.421C618.765 225.356 618.966 225.261 619.193 225.191C619.351 225.142 619.818 225.004 620.322 225.166C620.633 225.266 620.955 225.48 621.165 225.844C621.269 226.025 621.324 226.206 621.351 226.372C621.423 226.634 621.411 226.892 621.356 227.115C621.235 227.595 620.898 227.97 620.591 228.257C620.327 228.502 616.923 231.785 613.565 235.026C611.89 236.642 610.232 238.242 608.993 239.438L608.179 240.224L618.455 248.102C618.691 248.186 618.83 248.182 618.894 248.173C618.971 248.163 619.034 248.133 619.098 248.082C619.17 248.024 619.233 247.947 619.28 247.873L619.282 247.87L624.34 222.367C624.265 222.385 624.189 222.406 624.116 222.43C624.033 222.456 623.965 222.481 623.919 222.499C623.897 222.507 623.881 222.514 623.872 222.518L623.869 222.519ZM609.062 244.208L607.012 242.636L606.515 245.796L609.062 244.208ZM605.131 239.517L607.17 237.549C608.409 236.353 610.067 234.753 611.742 233.137L613.444 231.495L602.034 238.174L602.095 238.318C602.406 239.052 602.825 240.045 603.259 241.081C603.582 241.857 603.921 242.673 604.23 243.428L604.725 240.278C604.773 239.974 604.921 239.711 605.131 239.517Z" fill="black"/>
</g>
<g opacity="0.09">
<path fill-rule="evenodd" clip-rule="evenodd" d="M580.127 1372.53C580.204 1372.56 580.281 1372.58 580.358 1372.59C580.442 1372.79 580.551 1373.04 580.678 1373.34C580.988 1374.07 581.406 1375.06 581.837 1376.09C582.715 1378.2 583.602 1380.36 583.798 1380.98C584.04 1381.75 584.296 1382.27 584.576 1382.63C584.721 1382.81 584.888 1382.97 585.084 1383.1C585.182 1383.16 585.286 1383.21 585.395 1383.25C585.4 1383.25 585.405 1383.25 585.409 1383.25C585.969 1383.46 586.48 1383.37 586.8 1383.27C586.971 1383.21 587.109 1383.14 587.207 1383.08C587.257 1383.05 587.299 1383.03 587.333 1383L587.341 1383L592.287 1379.91L598 1384.29C598.084 1384.36 598.176 1384.41 598.273 1384.46C598.96 1384.75 599.624 1384.86 600.25 1384.77C600.874 1384.69 601.369 1384.43 601.738 1384.13C602.099 1383.84 602.344 1383.52 602.497 1383.28C602.575 1383.16 602.633 1383.05 602.674 1382.96C602.695 1382.92 602.712 1382.89 602.725 1382.86L602.741 1382.82L602.747 1382.8L602.75 1382.8L602.751 1382.79L602.752 1382.79C602.782 1382.72 602.805 1382.64 602.821 1382.56L608.036 1356.26C608.053 1356.18 608.061 1356.1 608.061 1356.01C608.061 1355.24 607.771 1354.51 607.089 1354.06C606.506 1353.68 605.856 1353.67 605.446 1353.7C605.003 1353.73 604.594 1353.84 604.32 1353.93C604.177 1353.97 604.057 1354.02 603.971 1354.05C603.927 1354.07 603.892 1354.08 603.865 1354.09L603.845 1354.1L574.596 1365.58L574.593 1365.58C574.574 1365.58 574.55 1365.59 574.522 1365.6C574.465 1365.63 574.389 1365.66 574.3 1365.7C574.128 1365.78 573.885 1365.9 573.636 1366.07C573.239 1366.34 572.324 1367.09 572.478 1368.32C572.601 1369.3 573.274 1369.9 573.684 1370.19C573.909 1370.35 574.122 1370.46 574.278 1370.54C574.35 1370.57 574.5 1370.63 574.565 1370.66L574.582 1370.67L580.127 1372.53ZM604.869 1356.52L604.865 1356.52C604.85 1356.53 604.836 1356.53 604.821 1356.54L575.536 1368.03C575.521 1368.03 575.506 1368.04 575.49 1368.04L575.474 1368.05C575.455 1368.06 575.424 1368.07 575.384 1368.09C575.362 1368.1 575.338 1368.11 575.314 1368.12C575.347 1368.14 575.379 1368.16 575.406 1368.17C575.433 1368.18 575.454 1368.19 575.465 1368.2L580.964 1370.05C581.065 1370.08 581.159 1370.13 581.245 1370.18L599.404 1359.55L599.421 1359.54C599.435 1359.53 599.452 1359.52 599.473 1359.51C599.514 1359.49 599.571 1359.45 599.639 1359.42C599.765 1359.36 599.966 1359.26 600.193 1359.19C600.351 1359.14 600.818 1359 601.322 1359.17C601.633 1359.27 601.955 1359.48 602.165 1359.84C602.269 1360.02 602.324 1360.21 602.351 1360.37C602.423 1360.63 602.411 1360.89 602.356 1361.11C602.235 1361.6 601.898 1361.97 601.591 1362.26C601.327 1362.5 597.923 1365.79 594.565 1369.03C592.89 1370.64 591.232 1372.24 589.993 1373.44L589.179 1374.22L599.455 1382.1C599.691 1382.19 599.83 1382.18 599.894 1382.17C599.971 1382.16 600.034 1382.13 600.098 1382.08C600.17 1382.02 600.233 1381.95 600.28 1381.87L600.282 1381.87L605.34 1356.37C605.265 1356.38 605.189 1356.41 605.116 1356.43C605.033 1356.46 604.965 1356.48 604.919 1356.5C604.897 1356.51 604.881 1356.51 604.872 1356.52L604.869 1356.52ZM590.062 1378.21L588.012 1376.64L587.515 1379.8L590.062 1378.21ZM586.131 1373.52L588.17 1371.55C589.409 1370.35 591.067 1368.75 592.742 1367.14L594.444 1365.49L583.034 1372.17L583.095 1372.32C583.406 1373.05 583.825 1374.04 584.259 1375.08C584.582 1375.86 584.921 1376.67 585.23 1377.43L585.725 1374.28C585.773 1373.97 585.921 1373.71 586.131 1373.52Z" fill="black"/>
</g>
<g opacity="0.09">
<path fill-rule="evenodd" clip-rule="evenodd" d="M561.127 2506.53C561.204 2506.56 561.281 2506.58 561.358 2506.59C561.442 2506.79 561.551 2507.04 561.678 2507.34C561.988 2508.07 562.406 2509.06 562.837 2510.09C563.715 2512.2 564.602 2514.36 564.798 2514.98C565.04 2515.75 565.296 2516.27 565.576 2516.63C565.721 2516.81 565.888 2516.97 566.084 2517.1C566.182 2517.16 566.286 2517.21 566.395 2517.25C566.4 2517.25 566.405 2517.25 566.409 2517.25C566.969 2517.46 567.48 2517.37 567.8 2517.27C567.971 2517.21 568.109 2517.14 568.207 2517.08C568.257 2517.05 568.299 2517.03 568.333 2517L568.341 2517L573.287 2513.91L579 2518.29C579.084 2518.36 579.176 2518.41 579.273 2518.46C579.96 2518.75 580.624 2518.86 581.25 2518.77C581.874 2518.69 582.369 2518.43 582.738 2518.13C583.099 2517.84 583.344 2517.52 583.497 2517.28C583.575 2517.16 583.633 2517.05 583.674 2516.96C583.695 2516.92 583.712 2516.89 583.725 2516.86L583.741 2516.82L583.747 2516.8L583.75 2516.8L583.751 2516.79L583.752 2516.79C583.782 2516.72 583.805 2516.64 583.821 2516.56L589.036 2490.26C589.053 2490.18 589.061 2490.1 589.061 2490.01C589.061 2489.24 588.771 2488.51 588.089 2488.06C587.506 2487.68 586.856 2487.67 586.446 2487.7C586.003 2487.73 585.594 2487.84 585.32 2487.93C585.177 2487.97 585.057 2488.02 584.971 2488.05C584.927 2488.07 584.892 2488.08 584.865 2488.09L584.845 2488.1L555.596 2499.58L555.593 2499.58C555.574 2499.58 555.55 2499.59 555.522 2499.6C555.465 2499.63 555.389 2499.66 555.3 2499.7C555.128 2499.78 554.885 2499.9 554.636 2500.07C554.239 2500.34 553.324 2501.09 553.478 2502.32C553.601 2503.3 554.274 2503.9 554.684 2504.19C554.909 2504.35 555.122 2504.46 555.278 2504.54C555.35 2504.57 555.5 2504.63 555.565 2504.66L555.582 2504.67L561.127 2506.53ZM585.869 2490.52L585.865 2490.52C585.85 2490.53 585.836 2490.53 585.821 2490.54L556.536 2502.03C556.521 2502.03 556.506 2502.04 556.49 2502.04L556.474 2502.05C556.455 2502.06 556.424 2502.07 556.384 2502.09C556.362 2502.1 556.338 2502.11 556.314 2502.12C556.347 2502.14 556.379 2502.16 556.406 2502.17C556.433 2502.18 556.454 2502.19 556.465 2502.2L561.964 2504.05C562.065 2504.08 562.159 2504.13 562.245 2504.18L580.404 2493.55L580.421 2493.54C580.435 2493.53 580.452 2493.52 580.473 2493.51C580.514 2493.49 580.571 2493.45 580.639 2493.42C580.765 2493.36 580.966 2493.26 581.193 2493.19C581.351 2493.14 581.818 2493 582.322 2493.17C582.633 2493.27 582.955 2493.48 583.165 2493.84C583.269 2494.02 583.324 2494.21 583.351 2494.37C583.423 2494.63 583.411 2494.89 583.356 2495.11C583.235 2495.6 582.898 2495.97 582.591 2496.26C582.327 2496.5 578.923 2499.79 575.565 2503.03C573.89 2504.64 572.232 2506.24 570.993 2507.44L570.179 2508.22L580.455 2516.1C580.691 2516.19 580.83 2516.18 580.894 2516.17C580.971 2516.16 581.034 2516.13 581.098 2516.08C581.17 2516.02 581.233 2515.95 581.28 2515.87L581.282 2515.87L586.34 2490.37C586.265 2490.38 586.189 2490.41 586.116 2490.43C586.033 2490.46 585.965 2490.48 585.919 2490.5C585.897 2490.51 585.881 2490.51 585.872 2490.52L585.869 2490.52ZM571.062 2512.21L569.012 2510.64L568.515 2513.8L571.062 2512.21ZM567.131 2507.52L569.17 2505.55C570.409 2504.35 572.067 2502.75 573.742 2501.14L575.444 2499.49L564.034 2506.17L564.095 2506.32C564.406 2507.05 564.825 2508.04 565.259 2509.08C565.582 2509.86 565.921 2510.67 566.23 2511.43L566.725 2508.28C566.773 2507.97 566.921 2507.71 567.131 2507.52Z" fill="black"/>
</g>
<g opacity="0.09">
<path fill-rule="evenodd" clip-rule="evenodd" d="M542.127 3640.53C542.204 3640.56 542.281 3640.58 542.358 3640.59C542.442 3640.79 542.551 3641.04 542.678 3641.34C542.988 3642.07 543.406 3643.06 543.837 3644.09C544.715 3646.2 545.602 3648.36 545.798 3648.98C546.04 3649.75 546.296 3650.27 546.576 3650.63C546.721 3650.81 546.888 3650.97 547.084 3651.1C547.182 3651.16 547.286 3651.21 547.395 3651.25C547.4 3651.25 547.405 3651.25 547.409 3651.25C547.969 3651.46 548.48 3651.37 548.8 3651.27C548.971 3651.21 549.109 3651.14 549.207 3651.08C549.257 3651.05 549.299 3651.03 549.333 3651L549.341 3651L554.287 3647.91L560 3652.29C560.084 3652.36 560.176 3652.41 560.273 3652.46C560.96 3652.75 561.624 3652.86 562.25 3652.77C562.874 3652.69 563.369 3652.43 563.738 3652.13C564.099 3651.84 564.344 3651.52 564.497 3651.28C564.575 3651.16 564.633 3651.05 564.674 3650.96C564.695 3650.92 564.712 3650.89 564.725 3650.86L564.741 3650.82L564.747 3650.8L564.75 3650.8L564.751 3650.79L564.752 3650.79C564.782 3650.72 564.805 3650.64 564.821 3650.56L570.036 3624.26C570.053 3624.18 570.061 3624.1 570.061 3624.01C570.061 3623.24 569.771 3622.51 569.089 3622.06C568.506 3621.68 567.856 3621.67 567.446 3621.7C567.003 3621.73 566.594 3621.84 566.32 3621.93C566.177 3621.97 566.057 3622.02 565.971 3622.05C565.927 3622.07 565.892 3622.08 565.865 3622.09L565.845 3622.1L536.596 3633.58L536.593 3633.58C536.574 3633.58 536.55 3633.59 536.522 3633.6C536.465 3633.63 536.389 3633.66 536.3 3633.7C536.128 3633.78 535.885 3633.9 535.636 3634.07C535.239 3634.34 534.324 3635.09 534.478 3636.32C534.601 3637.3 535.274 3637.9 535.684 3638.19C535.909 3638.35 536.122 3638.46 536.278 3638.54C536.35 3638.57 536.5 3638.63 536.565 3638.66L536.582 3638.67L542.127 3640.53ZM566.869 3624.52L566.865 3624.52C566.85 3624.53 566.836 3624.53 566.821 3624.54L537.536 3636.03C537.521 3636.03 537.506 3636.04 537.49 3636.04L537.474 3636.05C537.455 3636.06 537.424 3636.07 537.384 3636.09C537.362 3636.1 537.338 3636.11 537.314 3636.12C537.347 3636.14 537.379 3636.16 537.406 3636.17C537.433 3636.18 537.454 3636.19 537.465 3636.2L542.964 3638.05C543.065 3638.08 543.159 3638.13 543.245 3638.18L561.404 3627.55L561.421 3627.54C561.435 3627.53 561.452 3627.52 561.473 3627.51C561.514 3627.49 561.571 3627.45 561.639 3627.42C561.765 3627.36 561.966 3627.26 562.193 3627.19C562.351 3627.14 562.818 3627 563.322 3627.17C563.633 3627.27 563.955 3627.48 564.165 3627.84C564.269 3628.02 564.324 3628.21 564.351 3628.37C564.423 3628.63 564.411 3628.89 564.356 3629.11C564.235 3629.6 563.898 3629.97 563.591 3630.26C563.327 3630.5 559.923 3633.79 556.565 3637.03C554.89 3638.64 553.232 3640.24 551.993 3641.44L551.179 3642.22L561.455 3650.1C561.691 3650.19 561.83 3650.18 561.894 3650.17C561.971 3650.16 562.034 3650.13 562.098 3650.08C562.17 3650.02 562.233 3649.95 562.28 3649.87L562.282 3649.87L567.34 3624.37C567.265 3624.38 567.189 3624.41 567.116 3624.43C567.033 3624.46 566.965 3624.48 566.919 3624.5C566.897 3624.51 566.881 3624.51 566.872 3624.52L566.869 3624.52ZM552.062 3646.21L550.012 3644.64L549.515 3647.8L552.062 3646.21ZM548.131 3641.52L550.17 3639.55C551.409 3638.35 553.067 3636.75 554.742 3635.14L556.444 3633.49L545.034 3640.17L545.095 3640.32C545.406 3641.05 545.825 3642.04 546.259 3643.08C546.582 3643.86 546.921 3644.67 547.23 3645.43L547.725 3642.28C547.773 3641.97 547.921 3641.71 548.131 3641.52Z" fill="black"/>
</g>
<g opacity="0.09">
<path fill-rule="evenodd" clip-rule="evenodd" d="M542.127 3640.53C542.204 3640.56 542.281 3640.58 542.358 3640.59C542.442 3640.79 542.551 3641.04 542.678 3641.34C542.988 3642.07 543.406 3643.06 543.837 3644.09C544.715 3646.2 545.602 3648.36 545.798 3648.98C546.04 3649.75 546.296 3650.27 546.576 3650.63C546.721 3650.81 546.888 3650.97 547.084 3651.1C547.182 3651.16 547.286 3651.21 547.395 3651.25C547.4 3651.25 547.405 3651.25 547.409 3651.25C547.969 3651.46 548.48 3651.37 548.8 3651.27C548.971 3651.21 549.109 3651.14 549.207 3651.08C549.257 3651.05 549.299 3651.03 549.333 3651L549.341 3651L554.287 3647.91L560 3652.29C560.084 3652.36 560.176 3652.41 560.273 3652.46C560.96 3652.75 561.624 3652.86 562.25 3652.77C562.874 3652.69 563.369 3652.43 563.738 3652.13C564.099 3651.84 564.344 3651.52 564.497 3651.28C564.575 3651.16 564.633 3651.05 564.674 3650.96C564.695 3650.92 564.712 3650.89 564.725 3650.86L564.741 3650.82L564.747 3650.8L564.75 3650.8L564.751 3650.79L564.752 3650.79C564.782 3650.72 564.805 3650.64 564.821 3650.56L570.036 3624.26C570.053 3624.18 570.061 3624.1 570.061 3624.01C570.061 3623.24 569.771 3622.51 569.089 3622.06C568.506 3621.68 567.856 3621.67 567.446 3621.7C567.003 3621.73 566.594 3621.84 566.32 3621.93C566.177 3621.97 566.057 3622.02 565.971 3622.05C565.927 3622.07 565.892 3622.08 565.865 3622.09L565.845 3622.1L536.596 3633.58L536.593 3633.58C536.574 3633.58 536.55 3633.59 536.522 3633.6C536.465 3633.63 536.389 3633.66 536.3 3633.7C536.128 3633.78 535.885 3633.9 535.636 3634.07C535.239 3634.34 534.324 3635.09 534.478 3636.32C534.601 3637.3 535.274 3637.9 535.684 3638.19C535.909 3638.35 536.122 3638.46 536.278 3638.54C536.35 3638.57 536.5 3638.63 536.565 3638.66L536.582 3638.67L542.127 3640.53ZM566.869 3624.52L566.865 3624.52C566.85 3624.53 566.836 3624.53 566.821 3624.54L537.536 3636.03C537.521 3636.03 537.506 3636.04 537.49 3636.04L537.474 3636.05C537.455 3636.06 537.424 3636.07 537.384 3636.09C537.362 3636.1 537.338 3636.11 537.314 3636.12C537.347 3636.14 537.379 3636.16 537.406 3636.17C537.433 3636.18 537.454 3636.19 537.465 3636.2L542.964 3638.05C543.065 3638.08 543.159 3638.13 543.245 3638.18L561.404 3627.55L561.421 3627.54C561.435 3627.53 561.452 3627.52 561.473 3627.51C561.514 3627.49 561.571 3627.45 561.639 3627.42C561.765 3627.36 561.966 3627.26 562.193 3627.19C562.351 3627.14 562.818 3627 563.322 3627.17C563.633 3627.27 563.955 3627.48 564.165 3627.84C564.269 3628.02 564.324 3628.21 564.351 3628.37C564.423 3628.63 564.411 3628.89 564.356 3629.11C564.235 3629.6 563.898 3629.97 563.591 3630.26C563.327 3630.5 559.923 3633.79 556.565 3637.03C554.89 3638.64 553.232 3640.24 551.993 3641.44L551.179 3642.22L561.455 3650.1C561.691 3650.19 561.83 3650.18 561.894 3650.17C561.971 3650.16 562.034 3650.13 562.098 3650.08C562.17 3650.02 562.233 3649.95 562.28 3649.87L562.282 3649.87L567.34 3624.37C567.265 3624.38 567.189 3624.41 567.116 3624.43C567.033 3624.46 566.965 3624.48 566.919 3624.5C566.897 3624.51 566.881 3624.51 566.872 3624.52L566.869 3624.52ZM552.062 3646.21L550.012 3644.64L549.515 3647.8L552.062 3646.21ZM548.131 3641.52L550.17 3639.55C551.409 3638.35 553.067 3636.75 554.742 3635.14L556.444 3633.49L545.034 3640.17L545.095 3640.32C545.406 3641.05 545.825 3642.04 546.259 3643.08C546.582 3643.86 546.921 3644.67 547.23 3645.43L547.725 3642.28C547.773 3641.97 547.921 3641.71 548.131 3641.52Z" fill="black"/>
</g>
<g opacity="0.09">
<path fill-rule="evenodd" clip-rule="evenodd" d="M186.914 565.554C187.034 565.594 187.156 565.623 187.277 565.641C187.409 565.952 187.58 566.354 187.78 566.825C188.267 567.973 188.923 569.527 189.6 571.147C190.981 574.452 192.375 577.858 192.682 578.833C193.063 580.039 193.466 580.858 193.905 581.418C194.133 581.707 194.395 581.96 194.703 582.151C194.858 582.247 195.021 582.326 195.192 582.385C195.2 582.388 195.207 582.39 195.215 582.393C196.095 582.725 196.897 582.586 197.399 582.417C197.668 582.327 197.886 582.217 198.04 582.129C198.118 582.084 198.185 582.041 198.238 582.006L198.25 581.997L206.022 577.151L215 584.033C215.132 584.135 215.277 584.22 215.43 584.287C216.508 584.758 217.553 584.922 218.535 584.787C219.516 584.653 220.295 584.241 220.874 583.778C221.442 583.324 221.827 582.815 222.066 582.437C222.189 582.244 222.281 582.073 222.345 581.943C222.378 581.877 222.404 581.82 222.424 581.775L222.45 581.715L222.46 581.691L222.464 581.681L222.466 581.677L222.468 581.672C222.515 581.554 222.551 581.432 222.576 581.308L230.771 539.988C230.798 539.855 230.811 539.721 230.811 539.586C230.811 538.376 230.355 537.226 229.283 536.527C228.367 535.931 227.346 535.905 226.701 535.954C226.005 536.007 225.362 536.179 224.931 536.316C224.707 536.387 224.518 536.456 224.383 536.509C224.314 536.535 224.259 536.558 224.217 536.575L224.186 536.588L178.223 554.619L178.217 554.621C178.188 554.632 178.15 554.646 178.105 554.663C178.016 554.698 177.897 554.747 177.758 554.81C177.486 554.933 177.105 555.125 176.714 555.393C176.089 555.821 174.652 556.993 174.894 558.927C175.087 560.47 176.144 561.417 176.788 561.873C177.142 562.123 177.478 562.302 177.723 562.419C177.836 562.473 178.072 562.568 178.174 562.61L178.2 562.62L186.914 565.554ZM225.794 540.387L225.788 540.389C225.765 540.399 225.742 540.409 225.719 540.418L179.7 558.47C179.676 558.48 179.652 558.489 179.627 558.497L179.602 558.507C179.572 558.518 179.523 558.539 179.461 558.567C179.425 558.583 179.389 558.6 179.351 558.619C179.403 558.648 179.452 558.673 179.496 558.694C179.538 558.714 179.57 558.728 179.588 558.735L188.23 561.645C188.388 561.698 188.535 561.768 188.671 561.853L217.207 545.149L217.234 545.133C217.254 545.12 217.282 545.105 217.314 545.086C217.379 545.049 217.469 545.001 217.575 544.947C217.773 544.846 218.09 544.696 218.447 544.586C218.695 544.509 219.428 544.293 220.22 544.547C220.709 544.704 221.216 545.041 221.545 545.612C221.708 545.896 221.796 546.181 221.838 546.442C221.95 546.853 221.932 547.259 221.844 547.609C221.655 548.364 221.125 548.953 220.642 549.403C220.229 549.789 214.879 554.948 209.601 560.04C206.969 562.58 204.364 565.094 202.417 566.974L201.138 568.208L217.286 580.588C217.657 580.721 217.876 580.714 217.977 580.7C218.098 580.684 218.196 580.638 218.297 580.557C218.41 580.466 218.509 580.345 218.582 580.228L218.585 580.224L226.534 540.148C226.416 540.176 226.297 540.21 226.182 540.247C226.052 540.288 225.944 540.327 225.873 540.355C225.838 540.369 225.813 540.379 225.799 540.385L225.794 540.387ZM202.526 574.47L199.304 572L198.524 576.966L202.526 574.47ZM196.349 567.099L199.552 564.006C201.5 562.126 204.105 559.612 206.737 557.072L209.412 554.492L191.481 564.988L191.578 565.215C192.066 566.367 192.725 567.927 193.406 569.557C193.915 570.775 194.448 572.057 194.933 573.245L195.711 568.294C195.786 567.816 196.019 567.403 196.349 567.099Z" fill="black"/>
</g>
<g opacity="0.09">
<path fill-rule="evenodd" clip-rule="evenodd" d="M167.914 1699.55C168.034 1699.59 168.156 1699.62 168.277 1699.64C168.409 1699.95 168.58 1700.35 168.78 1700.82C169.267 1701.97 169.923 1703.53 170.6 1705.15C171.981 1708.45 173.375 1711.86 173.682 1712.83C174.063 1714.04 174.466 1714.86 174.905 1715.42C175.133 1715.71 175.395 1715.96 175.703 1716.15C175.858 1716.25 176.021 1716.33 176.192 1716.39C176.2 1716.39 176.207 1716.39 176.215 1716.39C177.095 1716.72 177.897 1716.59 178.399 1716.42C178.668 1716.33 178.886 1716.22 179.04 1716.13C179.118 1716.08 179.185 1716.04 179.238 1716.01L179.25 1716L187.022 1711.15L196 1718.03C196.132 1718.13 196.277 1718.22 196.43 1718.29C197.508 1718.76 198.553 1718.92 199.535 1718.79C200.516 1718.65 201.295 1718.24 201.874 1717.78C202.442 1717.32 202.827 1716.81 203.066 1716.44C203.189 1716.24 203.281 1716.07 203.345 1715.94C203.378 1715.88 203.404 1715.82 203.424 1715.77L203.45 1715.71L203.46 1715.69L203.464 1715.68L203.466 1715.68L203.468 1715.67C203.515 1715.55 203.551 1715.43 203.576 1715.31L211.771 1673.99C211.798 1673.86 211.811 1673.72 211.811 1673.59C211.811 1672.38 211.355 1671.23 210.283 1670.53C209.367 1669.93 208.346 1669.9 207.701 1669.95C207.005 1670.01 206.362 1670.18 205.931 1670.32C205.707 1670.39 205.518 1670.46 205.383 1670.51C205.314 1670.54 205.259 1670.56 205.217 1670.58L205.186 1670.59L159.223 1688.62L159.217 1688.62C159.188 1688.63 159.15 1688.65 159.105 1688.66C159.016 1688.7 158.897 1688.75 158.758 1688.81C158.486 1688.93 158.105 1689.13 157.714 1689.39C157.089 1689.82 155.652 1690.99 155.894 1692.93C156.087 1694.47 157.144 1695.42 157.788 1695.87C158.142 1696.12 158.478 1696.3 158.723 1696.42C158.836 1696.47 159.072 1696.57 159.174 1696.61L159.2 1696.62L167.914 1699.55ZM206.794 1674.39L206.788 1674.39C206.765 1674.4 206.742 1674.41 206.719 1674.42L160.7 1692.47C160.676 1692.48 160.652 1692.49 160.627 1692.5L160.602 1692.51C160.572 1692.52 160.523 1692.54 160.461 1692.57C160.425 1692.58 160.389 1692.6 160.351 1692.62C160.403 1692.65 160.452 1692.67 160.496 1692.69C160.538 1692.71 160.57 1692.73 160.588 1692.74L169.23 1695.64C169.388 1695.7 169.535 1695.77 169.671 1695.85L198.207 1679.15L198.234 1679.13C198.254 1679.12 198.282 1679.1 198.314 1679.09C198.379 1679.05 198.469 1679 198.575 1678.95C198.773 1678.85 199.09 1678.7 199.447 1678.59C199.695 1678.51 200.428 1678.29 201.22 1678.55C201.709 1678.7 202.216 1679.04 202.545 1679.61C202.708 1679.9 202.796 1680.18 202.838 1680.44C202.95 1680.85 202.932 1681.26 202.844 1681.61C202.655 1682.36 202.125 1682.95 201.642 1683.4C201.229 1683.79 195.879 1688.95 190.601 1694.04C187.969 1696.58 185.364 1699.09 183.417 1700.97L182.138 1702.21L198.286 1714.59C198.657 1714.72 198.876 1714.71 198.977 1714.7C199.098 1714.68 199.196 1714.64 199.297 1714.56C199.41 1714.47 199.509 1714.34 199.582 1714.23L199.585 1714.22L207.534 1674.15C207.416 1674.18 207.297 1674.21 207.182 1674.25C207.052 1674.29 206.944 1674.33 206.873 1674.36C206.838 1674.37 206.813 1674.38 206.799 1674.38L206.794 1674.39ZM183.526 1708.47L180.304 1706L179.524 1710.97L183.526 1708.47ZM177.349 1701.1L180.552 1698.01C182.5 1696.13 185.105 1693.61 187.737 1691.07L190.412 1688.49L172.481 1698.99L172.578 1699.21C173.066 1700.37 173.725 1701.93 174.406 1703.56C174.915 1704.77 175.448 1706.06 175.933 1707.24L176.711 1702.29C176.786 1701.82 177.019 1701.4 177.349 1701.1Z" fill="black"/>
</g>
<g opacity="0.09">
<path fill-rule="evenodd" clip-rule="evenodd" d="M148.914 2833.55C149.034 2833.59 149.156 2833.62 149.277 2833.64C149.409 2833.95 149.58 2834.35 149.78 2834.82C150.267 2835.97 150.923 2837.53 151.6 2839.15C152.981 2842.45 154.375 2845.86 154.682 2846.83C155.063 2848.04 155.466 2848.86 155.905 2849.42C156.133 2849.71 156.395 2849.96 156.703 2850.15C156.858 2850.25 157.021 2850.33 157.192 2850.39C157.2 2850.39 157.207 2850.39 157.215 2850.39C158.095 2850.72 158.897 2850.59 159.399 2850.42C159.668 2850.33 159.886 2850.22 160.04 2850.13C160.118 2850.08 160.185 2850.04 160.238 2850.01L160.25 2850L168.022 2845.15L177 2852.03C177.132 2852.13 177.277 2852.22 177.43 2852.29C178.508 2852.76 179.553 2852.92 180.535 2852.79C181.516 2852.65 182.295 2852.24 182.874 2851.78C183.442 2851.32 183.827 2850.81 184.066 2850.44C184.189 2850.24 184.281 2850.07 184.345 2849.94C184.378 2849.88 184.404 2849.82 184.424 2849.77L184.45 2849.71L184.46 2849.69L184.464 2849.68L184.466 2849.68L184.468 2849.67C184.515 2849.55 184.551 2849.43 184.576 2849.31L192.771 2807.99C192.798 2807.86 192.811 2807.72 192.811 2807.59C192.811 2806.38 192.355 2805.23 191.283 2804.53C190.367 2803.93 189.346 2803.9 188.701 2803.95C188.005 2804.01 187.362 2804.18 186.931 2804.32C186.707 2804.39 186.518 2804.46 186.383 2804.51C186.314 2804.54 186.259 2804.56 186.217 2804.58L186.186 2804.59L140.223 2822.62L140.217 2822.62C140.188 2822.63 140.15 2822.65 140.105 2822.66C140.016 2822.7 139.897 2822.75 139.758 2822.81C139.486 2822.93 139.105 2823.13 138.714 2823.39C138.089 2823.82 136.652 2824.99 136.894 2826.93C137.087 2828.47 138.144 2829.42 138.788 2829.87C139.142 2830.12 139.478 2830.3 139.723 2830.42C139.836 2830.47 140.072 2830.57 140.174 2830.61L140.2 2830.62L148.914 2833.55ZM187.794 2808.39L187.788 2808.39C187.765 2808.4 187.742 2808.41 187.719 2808.42L141.7 2826.47C141.676 2826.48 141.652 2826.49 141.627 2826.5L141.602 2826.51C141.572 2826.52 141.523 2826.54 141.461 2826.57C141.425 2826.58 141.389 2826.6 141.351 2826.62C141.403 2826.65 141.452 2826.67 141.496 2826.69C141.538 2826.71 141.57 2826.73 141.588 2826.74L150.23 2829.64C150.388 2829.7 150.535 2829.77 150.671 2829.85L179.207 2813.15L179.234 2813.13C179.254 2813.12 179.282 2813.1 179.314 2813.09C179.379 2813.05 179.469 2813 179.575 2812.95C179.773 2812.85 180.09 2812.7 180.447 2812.59C180.695 2812.51 181.428 2812.29 182.22 2812.55C182.709 2812.7 183.216 2813.04 183.545 2813.61C183.708 2813.9 183.796 2814.18 183.838 2814.44C183.95 2814.85 183.932 2815.26 183.844 2815.61C183.655 2816.36 183.125 2816.95 182.642 2817.4C182.229 2817.79 176.879 2822.95 171.601 2828.04C168.969 2830.58 166.364 2833.09 164.417 2834.97L163.138 2836.21L179.286 2848.59C179.657 2848.72 179.876 2848.71 179.977 2848.7C180.098 2848.68 180.196 2848.64 180.297 2848.56C180.41 2848.47 180.509 2848.34 180.582 2848.23L180.585 2848.22L188.534 2808.15C188.416 2808.18 188.297 2808.21 188.182 2808.25C188.052 2808.29 187.944 2808.33 187.873 2808.36C187.838 2808.37 187.813 2808.38 187.799 2808.38L187.794 2808.39ZM164.526 2842.47L161.304 2840L160.524 2844.97L164.526 2842.47ZM158.349 2835.1L161.552 2832.01C163.5 2830.13 166.105 2827.61 168.737 2825.07L171.412 2822.49L153.481 2832.99L153.578 2833.21C154.066 2834.37 154.725 2835.93 155.406 2837.56C155.915 2838.77 156.448 2840.06 156.933 2841.24L157.711 2836.29C157.786 2835.82 158.019 2835.4 158.349 2835.1Z" fill="black"/>
</g>
<g opacity="0.09">
<path fill-rule="evenodd" clip-rule="evenodd" d="M129.914 3967.55C130.034 3967.59 130.156 3967.62 130.277 3967.64C130.409 3967.95 130.58 3968.35 130.78 3968.82C131.267 3969.97 131.923 3971.53 132.6 3973.15C133.981 3976.45 135.375 3979.86 135.682 3980.83C136.063 3982.04 136.466 3982.86 136.905 3983.42C137.133 3983.71 137.395 3983.96 137.703 3984.15C137.858 3984.25 138.021 3984.33 138.192 3984.39C138.2 3984.39 138.207 3984.39 138.215 3984.39C139.095 3984.72 139.897 3984.59 140.399 3984.42C140.668 3984.33 140.886 3984.22 141.04 3984.13C141.118 3984.08 141.185 3984.04 141.238 3984.01L141.25 3984L149.022 3979.15L158 3986.03C158.132 3986.13 158.277 3986.22 158.43 3986.29C159.508 3986.76 160.553 3986.92 161.535 3986.79C162.516 3986.65 163.295 3986.24 163.874 3985.78C164.442 3985.32 164.827 3984.81 165.066 3984.44C165.189 3984.24 165.281 3984.07 165.345 3983.94C165.378 3983.88 165.404 3983.82 165.424 3983.77L165.45 3983.71L165.46 3983.69L165.464 3983.68L165.466 3983.68L165.468 3983.67C165.515 3983.55 165.551 3983.43 165.576 3983.31L173.771 3941.99C173.798 3941.86 173.811 3941.72 173.811 3941.59C173.811 3940.38 173.355 3939.23 172.283 3938.53C171.367 3937.93 170.346 3937.9 169.701 3937.95C169.005 3938.01 168.362 3938.18 167.931 3938.32C167.707 3938.39 167.518 3938.46 167.383 3938.51C167.314 3938.54 167.259 3938.56 167.217 3938.58L167.186 3938.59L121.223 3956.62L121.217 3956.62C121.188 3956.63 121.15 3956.65 121.105 3956.66C121.016 3956.7 120.897 3956.75 120.758 3956.81C120.486 3956.93 120.105 3957.13 119.714 3957.39C119.089 3957.82 117.652 3958.99 117.894 3960.93C118.087 3962.47 119.144 3963.42 119.788 3963.87C120.142 3964.12 120.478 3964.3 120.723 3964.42C120.836 3964.47 121.072 3964.57 121.174 3964.61L121.2 3964.62L129.914 3967.55ZM168.794 3942.39L168.788 3942.39C168.765 3942.4 168.742 3942.41 168.719 3942.42L122.7 3960.47C122.676 3960.48 122.652 3960.49 122.627 3960.5L122.602 3960.51C122.572 3960.52 122.523 3960.54 122.461 3960.57C122.425 3960.58 122.389 3960.6 122.351 3960.62C122.403 3960.65 122.452 3960.67 122.496 3960.69C122.538 3960.71 122.57 3960.73 122.588 3960.74L131.23 3963.64C131.388 3963.7 131.535 3963.77 131.671 3963.85L160.207 3947.15L160.234 3947.13C160.254 3947.12 160.282 3947.1 160.314 3947.09C160.379 3947.05 160.469 3947 160.575 3946.95C160.773 3946.85 161.09 3946.7 161.447 3946.59C161.695 3946.51 162.428 3946.29 163.22 3946.55C163.709 3946.7 164.216 3947.04 164.545 3947.61C164.708 3947.9 164.796 3948.18 164.838 3948.44C164.95 3948.85 164.932 3949.26 164.844 3949.61C164.655 3950.36 164.125 3950.95 163.642 3951.4C163.229 3951.79 157.879 3956.95 152.601 3962.04C149.969 3964.58 147.364 3967.09 145.417 3968.97L144.138 3970.21L160.286 3982.59C160.657 3982.72 160.876 3982.71 160.977 3982.7C161.098 3982.68 161.196 3982.64 161.297 3982.56C161.41 3982.47 161.509 3982.34 161.582 3982.23L161.585 3982.22L169.534 3942.15C169.416 3942.18 169.297 3942.21 169.182 3942.25C169.052 3942.29 168.944 3942.33 168.873 3942.36C168.838 3942.37 168.813 3942.38 168.799 3942.38L168.794 3942.39ZM145.526 3976.47L142.304 3974L141.524 3978.97L145.526 3976.47ZM139.349 3969.1L142.552 3966.01C144.5 3964.13 147.105 3961.61 149.737 3959.07L152.412 3956.49L134.481 3966.99L134.578 3967.21C135.066 3968.37 135.725 3969.93 136.406 3971.56C136.915 3972.77 137.448 3974.06 137.933 3975.24L138.711 3970.29C138.786 3969.82 139.019 3969.4 139.349 3969.1Z" fill="black"/>
</g>
<g opacity="0.09">
<path fill-rule="evenodd" clip-rule="evenodd" d="M129.914 3967.55C130.034 3967.59 130.156 3967.62 130.277 3967.64C130.409 3967.95 130.58 3968.35 130.78 3968.82C131.267 3969.97 131.923 3971.53 132.6 3973.15C133.981 3976.45 135.375 3979.86 135.682 3980.83C136.063 3982.04 136.466 3982.86 136.905 3983.42C137.133 3983.71 137.395 3983.96 137.703 3984.15C137.858 3984.25 138.021 3984.33 138.192 3984.39C138.2 3984.39 138.207 3984.39 138.215 3984.39C139.095 3984.72 139.897 3984.59 140.399 3984.42C140.668 3984.33 140.886 3984.22 141.04 3984.13C141.118 3984.08 141.185 3984.04 141.238 3984.01L141.25 3984L149.022 3979.15L158 3986.03C158.132 3986.13 158.277 3986.22 158.43 3986.29C159.508 3986.76 160.553 3986.92 161.535 3986.79C162.516 3986.65 163.295 3986.24 163.874 3985.78C164.442 3985.32 164.827 3984.81 165.066 3984.44C165.189 3984.24 165.281 3984.07 165.345 3983.94C165.378 3983.88 165.404 3983.82 165.424 3983.77L165.45 3983.71L165.46 3983.69L165.464 3983.68L165.466 3983.68L165.468 3983.67C165.515 3983.55 165.551 3983.43 165.576 3983.31L173.771 3941.99C173.798 3941.86 173.811 3941.72 173.811 3941.59C173.811 3940.38 173.355 3939.23 172.283 3938.53C171.367 3937.93 170.346 3937.9 169.701 3937.95C169.005 3938.01 168.362 3938.18 167.931 3938.32C167.707 3938.39 167.518 3938.46 167.383 3938.51C167.314 3938.54 167.259 3938.56 167.217 3938.58L167.186 3938.59L121.223 3956.62L121.217 3956.62C121.188 3956.63 121.15 3956.65 121.105 3956.66C121.016 3956.7 120.897 3956.75 120.758 3956.81C120.486 3956.93 120.105 3957.13 119.714 3957.39C119.089 3957.82 117.652 3958.99 117.894 3960.93C118.087 3962.47 119.144 3963.42 119.788 3963.87C120.142 3964.12 120.478 3964.3 120.723 3964.42C120.836 3964.47 121.072 3964.57 121.174 3964.61L121.2 3964.62L129.914 3967.55ZM168.794 3942.39L168.788 3942.39C168.765 3942.4 168.742 3942.41 168.719 3942.42L122.7 3960.47C122.676 3960.48 122.652 3960.49 122.627 3960.5L122.602 3960.51C122.572 3960.52 122.523 3960.54 122.461 3960.57C122.425 3960.58 122.389 3960.6 122.351 3960.62C122.403 3960.65 122.452 3960.67 122.496 3960.69C122.538 3960.71 122.57 3960.73 122.588 3960.74L131.23 3963.64C131.388 3963.7 131.535 3963.77 131.671 3963.85L160.207 3947.15L160.234 3947.13C160.254 3947.12 160.282 3947.1 160.314 3947.09C160.379 3947.05 160.469 3947 160.575 3946.95C160.773 3946.85 161.09 3946.7 161.447 3946.59C161.695 3946.51 162.428 3946.29 163.22 3946.55C163.709 3946.7 164.216 3947.04 164.545 3947.61C164.708 3947.9 164.796 3948.18 164.838 3948.44C164.95 3948.85 164.932 3949.26 164.844 3949.61C164.655 3950.36 164.125 3950.95 163.642 3951.4C163.229 3951.79 157.879 3956.95 152.601 3962.04C149.969 3964.58 147.364 3967.09 145.417 3968.97L144.138 3970.21L160.286 3982.59C160.657 3982.72 160.876 3982.71 160.977 3982.7C161.098 3982.68 161.196 3982.64 161.297 3982.56C161.41 3982.47 161.509 3982.34 161.582 3982.23L161.585 3982.22L169.534 3942.15C169.416 3942.18 169.297 3942.21 169.182 3942.25C169.052 3942.29 168.944 3942.33 168.873 3942.36C168.838 3942.37 168.813 3942.38 168.799 3942.38L168.794 3942.39ZM145.526 3976.47L142.304 3974L141.524 3978.97L145.526 3976.47ZM139.349 3969.1L142.552 3966.01C144.5 3964.13 147.105 3961.61 149.737 3959.07L152.412 3956.49L134.481 3966.99L134.578 3967.21C135.066 3968.37 135.725 3969.93 136.406 3971.56C136.915 3972.77 137.448 3974.06 137.933 3975.24L138.711 3970.29C138.786 3969.82 139.019 3969.4 139.349 3969.1Z" fill="black"/>
</g>
<g style="mix-blend-mode:soft-light">
<circle cx="1424" cy="700" r="85" fill="#FFC2B4"/>
</g>
<g opacity="0.09">
<path fill-rule="evenodd" clip-rule="evenodd" d="M1303.41 129.25C1303.41 123.675 1307.93 119.156 1313.5 119.156C1319.08 119.156 1323.59 123.675 1323.59 129.25C1323.59 134.825 1319.08 139.344 1313.5 139.344C1307.93 139.344 1303.41 134.825 1303.41 129.25ZM1313.5 122.344C1309.69 122.344 1306.59 125.436 1306.59 129.25C1306.59 133.064 1309.69 136.156 1313.5 136.156C1317.31 136.156 1320.41 133.064 1320.41 129.25C1320.41 125.436 1317.31 122.344 1313.5 122.344Z" fill="black"/>
<path fill-rule="evenodd" clip-rule="evenodd" d="M1295.49 126.821C1296.24 117.686 1303.88 110.656 1313.04 110.656H1313.96C1323.13 110.656 1330.76 117.686 1331.51 126.821C1331.92 131.728 1330.4 136.6 1327.28 140.412L1317.1 152.868C1315.24 155.142 1311.76 155.142 1309.9 152.868L1299.72 140.412C1296.6 136.6 1295.09 131.728 1295.49 126.821ZM1313.04 113.844C1305.54 113.844 1299.28 119.601 1298.67 127.083C1298.33 131.167 1299.59 135.222 1302.19 138.394L1312.37 150.85C1312.95 151.565 1314.05 151.565 1314.63 150.85L1324.82 138.394C1327.41 135.222 1328.67 131.167 1328.33 127.083C1327.72 119.601 1321.47 113.844 1313.96 113.844H1313.04Z" fill="black"/>
</g>
<g opacity="0.09">
<path fill-rule="evenodd" clip-rule="evenodd" d="M1284.41 1263.25C1284.41 1257.68 1288.93 1253.16 1294.5 1253.16C1300.08 1253.16 1304.59 1257.68 1304.59 1263.25C1304.59 1268.82 1300.08 1273.34 1294.5 1273.34C1288.93 1273.34 1284.41 1268.82 1284.41 1263.25ZM1294.5 1256.34C1290.69 1256.34 1287.59 1259.44 1287.59 1263.25C1287.59 1267.06 1290.69 1270.16 1294.5 1270.16C1298.31 1270.16 1301.41 1267.06 1301.41 1263.25C1301.41 1259.44 1298.31 1256.34 1294.5 1256.34Z" fill="black"/>
<path fill-rule="evenodd" clip-rule="evenodd" d="M1276.49 1260.82C1277.24 1251.69 1284.88 1244.66 1294.04 1244.66H1294.96C1304.13 1244.66 1311.76 1251.69 1312.51 1260.82C1312.92 1265.73 1311.4 1270.6 1308.28 1274.41L1298.1 1286.87C1296.24 1289.14 1292.76 1289.14 1290.9 1286.87L1280.72 1274.41C1277.6 1270.6 1276.09 1265.73 1276.49 1260.82ZM1294.04 1247.84C1286.54 1247.84 1280.28 1253.6 1279.67 1261.08C1279.33 1265.17 1280.59 1269.22 1283.19 1272.39L1293.37 1284.85C1293.95 1285.56 1295.05 1285.56 1295.63 1284.85L1305.82 1272.39C1308.41 1269.22 1309.67 1265.17 1309.33 1261.08C1308.72 1253.6 1302.47 1247.84 1294.96 1247.84H1294.04Z" fill="black"/>
</g>
<g opacity="0.09">
<path fill-rule="evenodd" clip-rule="evenodd" d="M1265.41 2397.25C1265.41 2391.68 1269.93 2387.16 1275.5 2387.16C1281.08 2387.16 1285.59 2391.68 1285.59 2397.25C1285.59 2402.82 1281.08 2407.34 1275.5 2407.34C1269.93 2407.34 1265.41 2402.82 1265.41 2397.25ZM1275.5 2390.34C1271.69 2390.34 1268.59 2393.44 1268.59 2397.25C1268.59 2401.06 1271.69 2404.16 1275.5 2404.16C1279.31 2404.16 1282.41 2401.06 1282.41 2397.25C1282.41 2393.44 1279.31 2390.34 1275.5 2390.34Z" fill="black"/>
<path fill-rule="evenodd" clip-rule="evenodd" d="M1257.49 2394.82C1258.24 2385.69 1265.88 2378.66 1275.04 2378.66H1275.96C1285.13 2378.66 1292.76 2385.69 1293.51 2394.82C1293.92 2399.73 1292.4 2404.6 1289.28 2408.41L1279.1 2420.87C1277.24 2423.14 1273.76 2423.14 1271.9 2420.87L1261.72 2408.41C1258.6 2404.6 1257.09 2399.73 1257.49 2394.82ZM1275.04 2381.84C1267.54 2381.84 1261.28 2387.6 1260.67 2395.08C1260.33 2399.17 1261.59 2403.22 1264.19 2406.39L1274.37 2418.85C1274.95 2419.56 1276.05 2419.56 1276.63 2418.85L1286.82 2406.39C1289.41 2403.22 1290.67 2399.17 1290.33 2395.08C1289.72 2387.6 1283.47 2381.84 1275.96 2381.84H1275.04Z" fill="black"/>
</g>
<g opacity="0.09">
<path fill-rule="evenodd" clip-rule="evenodd" d="M1246.41 3531.25C1246.41 3525.68 1250.93 3521.16 1256.5 3521.16C1262.08 3521.16 1266.59 3525.68 1266.59 3531.25C1266.59 3536.82 1262.08 3541.34 1256.5 3541.34C1250.93 3541.34 1246.41 3536.82 1246.41 3531.25ZM1256.5 3524.34C1252.69 3524.34 1249.59 3527.44 1249.59 3531.25C1249.59 3535.06 1252.69 3538.16 1256.5 3538.16C1260.31 3538.16 1263.41 3535.06 1263.41 3531.25C1263.41 3527.44 1260.31 3524.34 1256.5 3524.34Z" fill="black"/>
<path fill-rule="evenodd" clip-rule="evenodd" d="M1238.49 3528.82C1239.24 3519.69 1246.88 3512.66 1256.04 3512.66H1256.96C1266.13 3512.66 1273.76 3519.69 1274.51 3528.82C1274.92 3533.73 1273.4 3538.6 1270.28 3542.41L1260.1 3554.87C1258.24 3557.14 1254.76 3557.14 1252.9 3554.87L1242.72 3542.41C1239.6 3538.6 1238.09 3533.73 1238.49 3528.82ZM1256.04 3515.84C1248.54 3515.84 1242.28 3521.6 1241.67 3529.08C1241.33 3533.17 1242.59 3537.22 1245.19 3540.39L1255.37 3552.85C1255.95 3553.56 1257.05 3553.56 1257.63 3552.85L1267.82 3540.39C1270.41 3537.22 1271.67 3533.17 1271.33 3529.08C1270.72 3521.6 1264.47 3515.84 1256.96 3515.84H1256.04Z" fill="black"/>
</g>
<g opacity="0.09">
<path fill-rule="evenodd" clip-rule="evenodd" d="M1246.41 3531.25C1246.41 3525.68 1250.93 3521.16 1256.5 3521.16C1262.08 3521.16 1266.59 3525.68 1266.59 3531.25C1266.59 3536.82 1262.08 3541.34 1256.5 3541.34C1250.93 3541.34 1246.41 3536.82 1246.41 3531.25ZM1256.5 3524.34C1252.69 3524.34 1249.59 3527.44 1249.59 3531.25C1249.59 3535.06 1252.69 3538.16 1256.5 3538.16C1260.31 3538.16 1263.41 3535.06 1263.41 3531.25C1263.41 3527.44 1260.31 3524.34 1256.5 3524.34Z" fill="black"/>
<path fill-rule="evenodd" clip-rule="evenodd" d="M1238.49 3528.82C1239.24 3519.69 1246.88 3512.66 1256.04 3512.66H1256.96C1266.13 3512.66 1273.76 3519.69 1274.51 3528.82C1274.92 3533.73 1273.4 3538.6 1270.28 3542.41L1260.1 3554.87C1258.24 3557.14 1254.76 3557.14 1252.9 3554.87L1242.72 3542.41C1239.6 3538.6 1238.09 3533.73 1238.49 3528.82ZM1256.04 3515.84C1248.54 3515.84 1242.28 3521.6 1241.67 3529.08C1241.33 3533.17 1242.59 3537.22 1245.19 3540.39L1255.37 3552.85C1255.95 3553.56 1257.05 3553.56 1257.63 3552.85L1267.82 3540.39C1270.41 3537.22 1271.67 3533.17 1271.33 3529.08C1270.72 3521.6 1264.47 3515.84 1256.96 3515.84H1256.04Z" fill="black"/>
</g>
<g opacity="0.09">
<path fill-rule="evenodd" clip-rule="evenodd" d="M285.407 63.25C285.407 57.6754 289.926 53.1563 295.501 53.1563C301.075 53.1563 305.595 57.6754 305.595 63.25C305.595 68.8246 301.075 73.3438 295.501 73.3438C289.926 73.3438 285.407 68.8246 285.407 63.25ZM295.501 56.3438C291.687 56.3438 288.595 59.4358 288.595 63.25C288.595 67.0642 291.687 70.1563 295.501 70.1563C299.315 70.1563 302.407 67.0642 302.407 63.25C302.407 59.4358 299.315 56.3438 295.501 56.3438Z" fill="black"/>
<path fill-rule="evenodd" clip-rule="evenodd" d="M277.49 60.8208C278.243 51.6863 285.876 44.6562 295.042 44.6562H295.96C305.125 44.6562 312.759 51.6863 313.512 60.8208C313.916 65.7278 312.4 70.6001 309.284 74.4117L299.098 86.868C297.239 89.142 293.763 89.142 291.903 86.868L281.718 74.4117C278.601 70.6002 277.086 65.7278 277.49 60.8208ZM295.042 47.8438C287.535 47.8438 281.283 53.6014 280.667 61.0827C280.33 65.1666 281.592 69.2218 284.186 72.394L294.371 84.8503C294.955 85.5646 296.047 85.5646 296.631 84.8503L306.816 72.394C309.41 69.2217 310.671 65.1666 310.335 61.0827C309.718 53.6014 303.466 47.8438 295.96 47.8438H295.042Z" fill="black"/>
</g>
<g opacity="0.09">
<path fill-rule="evenodd" clip-rule="evenodd" d="M266.407 1197.25C266.407 1191.68 270.926 1187.16 276.501 1187.16C282.075 1187.16 286.595 1191.68 286.595 1197.25C286.595 1202.82 282.075 1207.34 276.501 1207.34C270.926 1207.34 266.407 1202.82 266.407 1197.25ZM276.501 1190.34C272.687 1190.34 269.595 1193.44 269.595 1197.25C269.595 1201.06 272.687 1204.16 276.501 1204.16C280.315 1204.16 283.407 1201.06 283.407 1197.25C283.407 1193.44 280.315 1190.34 276.501 1190.34Z" fill="black"/>
<path fill-rule="evenodd" clip-rule="evenodd" d="M258.49 1194.82C259.243 1185.69 266.876 1178.66 276.042 1178.66H276.96C286.125 1178.66 293.759 1185.69 294.512 1194.82C294.916 1199.73 293.4 1204.6 290.284 1208.41L280.098 1220.87C278.239 1223.14 274.763 1223.14 272.903 1220.87L262.718 1208.41C259.601 1204.6 258.086 1199.73 258.49 1194.82ZM276.042 1181.84C268.535 1181.84 262.283 1187.6 261.667 1195.08C261.33 1199.17 262.592 1203.22 265.186 1206.39L275.371 1218.85C275.955 1219.56 277.047 1219.56 277.631 1218.85L287.816 1206.39C290.41 1203.22 291.671 1199.17 291.335 1195.08C290.718 1187.6 284.466 1181.84 276.96 1181.84H276.042Z" fill="black"/>
</g>
<g opacity="0.09">
<path fill-rule="evenodd" clip-rule="evenodd" d="M247.407 2331.25C247.407 2325.68 251.926 2321.16 257.501 2321.16C263.075 2321.16 267.595 2325.68 267.595 2331.25C267.595 2336.82 263.075 2341.34 257.501 2341.34C251.926 2341.34 247.407 2336.82 247.407 2331.25ZM257.501 2324.34C253.687 2324.34 250.595 2327.44 250.595 2331.25C250.595 2335.06 253.687 2338.16 257.501 2338.16C261.315 2338.16 264.407 2335.06 264.407 2331.25C264.407 2327.44 261.315 2324.34 257.501 2324.34Z" fill="black"/>
<path fill-rule="evenodd" clip-rule="evenodd" d="M239.49 2328.82C240.243 2319.69 247.876 2312.66 257.042 2312.66H257.96C267.125 2312.66 274.759 2319.69 275.512 2328.82C275.916 2333.73 274.4 2338.6 271.284 2342.41L261.098 2354.87C259.239 2357.14 255.763 2357.14 253.903 2354.87L243.718 2342.41C240.601 2338.6 239.086 2333.73 239.49 2328.82ZM257.042 2315.84C249.535 2315.84 243.283 2321.6 242.667 2329.08C242.33 2333.17 243.592 2337.22 246.186 2340.39L256.371 2352.85C256.955 2353.56 258.047 2353.56 258.631 2352.85L268.816 2340.39C271.41 2337.22 272.671 2333.17 272.335 2329.08C271.718 2321.6 265.466 2315.84 257.96 2315.84H257.042Z" fill="black"/>
</g>
<g opacity="0.09">
<path fill-rule="evenodd" clip-rule="evenodd" d="M228.407 3465.25C228.407 3459.68 232.926 3455.16 238.501 3455.16C244.075 3455.16 248.595 3459.68 248.595 3465.25C248.595 3470.82 244.075 3475.34 238.501 3475.34C232.926 3475.34 228.407 3470.82 228.407 3465.25ZM238.501 3458.34C234.687 3458.34 231.595 3461.44 231.595 3465.25C231.595 3469.06 234.687 3472.16 238.501 3472.16C242.315 3472.16 245.407 3469.06 245.407 3465.25C245.407 3461.44 242.315 3458.34 238.501 3458.34Z" fill="black"/>
<path fill-rule="evenodd" clip-rule="evenodd" d="M220.49 3462.82C221.243 3453.69 228.876 3446.66 238.042 3446.66H238.96C248.125 3446.66 255.759 3453.69 256.512 3462.82C256.916 3467.73 255.4 3472.6 252.284 3476.41L242.098 3488.87C240.239 3491.14 236.763 3491.14 234.903 3488.87L224.718 3476.41C221.601 3472.6 220.086 3467.73 220.49 3462.82ZM238.042 3449.84C230.535 3449.84 224.283 3455.6 223.667 3463.08C223.33 3467.17 224.592 3471.22 227.186 3474.39L237.371 3486.85C237.955 3487.56 239.047 3487.56 239.631 3486.85L249.816 3474.39C252.41 3471.22 253.671 3467.17 253.335 3463.08C252.718 3455.6 246.466 3449.84 238.96 3449.84H238.042Z" fill="black"/>
</g>
<g opacity="0.09">
<path fill-rule="evenodd" clip-rule="evenodd" d="M228.407 3465.25C228.407 3459.68 232.926 3455.16 238.501 3455.16C244.075 3455.16 248.595 3459.68 248.595 3465.25C248.595 3470.82 244.075 3475.34 238.501 3475.34C232.926 3475.34 228.407 3470.82 228.407 3465.25ZM238.501 3458.34C234.687 3458.34 231.595 3461.44 231.595 3465.25C231.595 3469.06 234.687 3472.16 238.501 3472.16C242.315 3472.16 245.407 3469.06 245.407 3465.25C245.407 3461.44 242.315 3458.34 238.501 3458.34Z" fill="black"/>
<path fill-rule="evenodd" clip-rule="evenodd" d="M220.49 3462.82C221.243 3453.69 228.876 3446.66 238.042 3446.66H238.96C248.125 3446.66 255.759 3453.69 256.512 3462.82C256.916 3467.73 255.4 3472.6 252.284 3476.41L242.098 3488.87C240.239 3491.14 236.763 3491.14 234.903 3488.87L224.718 3476.41C221.601 3472.6 220.086 3467.73 220.49 3462.82ZM238.042 3449.84C230.535 3449.84 224.283 3455.6 223.667 3463.08C223.33 3467.17 224.592 3471.22 227.186 3474.39L237.371 3486.85C237.955 3487.56 239.047 3487.56 239.631 3486.85L249.816 3474.39C252.41 3471.22 253.671 3467.17 253.335 3463.08C252.718 3455.6 246.466 3449.84 238.96 3449.84H238.042Z" fill="black"/>
</g>
<g opacity="0.09">
<path fill-rule="evenodd" clip-rule="evenodd" d="M222.964 980.104C223.65 973.511 223.65 966.864 222.964 960.271C222.72 957.92 220.009 956.729 218.112 958.139L211.786 962.842C209.858 964.275 207.52 965.049 205.118 965.049H199.214C198.15 965.049 197.287 965.911 197.287 966.976V973.399C197.287 974.464 198.15 975.326 199.214 975.326H200.177L198.873 980.19C198.728 980.732 198.993 981.3 199.502 981.537L205.177 984.184C205.486 984.328 205.844 984.328 206.154 984.184C206.464 984.039 206.694 983.765 206.782 983.435L208.729 976.17C208.749 976.093 208.762 976.016 208.766 975.939C209.842 976.31 210.861 976.846 211.786 977.533L218.112 982.236C220.009 983.646 222.72 982.455 222.964 980.104ZM220.664 960.51C221.334 966.944 221.334 973.431 220.664 979.865C220.605 980.433 219.95 980.721 219.492 980.38L213.165 975.677C210.838 973.948 208.017 973.014 205.118 973.014L199.6 973.014L199.6 967.361H205.118C208.017 967.361 210.838 966.427 213.165 964.698L219.492 959.995C219.95 959.654 220.605 959.942 220.664 960.51ZM206.548 975.418C206.075 975.357 205.598 975.326 205.118 975.326H202.571L201.358 979.852L204.905 981.506L206.495 975.572C206.509 975.519 206.527 975.467 206.548 975.418Z" fill="black"/>
</g>
<g opacity="0.09">
<path fill-rule="evenodd" clip-rule="evenodd" d="M203.964 2114.1C204.65 2107.51 204.65 2100.86 203.964 2094.27C203.72 2091.92 201.009 2090.73 199.112 2092.14L192.786 2096.84C190.858 2098.27 188.52 2099.05 186.118 2099.05H180.214C179.15 2099.05 178.287 2099.91 178.287 2100.98V2107.4C178.287 2108.46 179.15 2109.33 180.214 2109.33H181.177L179.873 2114.19C179.728 2114.73 179.993 2115.3 180.502 2115.54L186.177 2118.18C186.486 2118.33 186.844 2118.33 187.154 2118.18C187.464 2118.04 187.694 2117.77 187.782 2117.44L189.729 2110.17C189.749 2110.09 189.762 2110.02 189.766 2109.94C190.842 2110.31 191.861 2110.85 192.786 2111.53L199.112 2116.24C201.009 2117.65 203.72 2116.46 203.964 2114.1ZM201.664 2094.51C202.334 2100.94 202.334 2107.43 201.664 2113.86C201.605 2114.43 200.95 2114.72 200.492 2114.38L194.165 2109.68C191.838 2107.95 189.017 2107.01 186.118 2107.01L180.6 2107.01L180.6 2101.36H186.118C189.017 2101.36 191.838 2100.43 194.165 2098.7L200.492 2094C200.95 2093.65 201.605 2093.94 201.664 2094.51ZM187.548 2109.42C187.075 2109.36 186.598 2109.33 186.118 2109.33H183.571L182.358 2113.85L185.905 2115.51L187.495 2109.57C187.509 2109.52 187.527 2109.47 187.548 2109.42Z" fill="black"/>
</g>
<g opacity="0.09">
<path fill-rule="evenodd" clip-rule="evenodd" d="M184.964 3248.1C185.65 3241.51 185.65 3234.86 184.964 3228.27C184.72 3225.92 182.009 3224.73 180.112 3226.14L173.786 3230.84C171.858 3232.27 169.52 3233.05 167.118 3233.05H161.214C160.15 3233.05 159.287 3233.91 159.287 3234.98V3241.4C159.287 3242.46 160.15 3243.33 161.214 3243.33H162.177L160.873 3248.19C160.728 3248.73 160.993 3249.3 161.502 3249.54L167.177 3252.18C167.486 3252.33 167.844 3252.33 168.154 3252.18C168.464 3252.04 168.694 3251.77 168.782 3251.44L170.729 3244.17C170.749 3244.09 170.762 3244.02 170.766 3243.94C171.842 3244.31 172.861 3244.85 173.786 3245.53L180.112 3250.24C182.009 3251.65 184.72 3250.46 184.964 3248.1ZM182.664 3228.51C183.334 3234.94 183.334 3241.43 182.664 3247.86C182.605 3248.43 181.95 3248.72 181.492 3248.38L175.165 3243.68C172.838 3241.95 170.017 3241.01 167.118 3241.01L161.6 3241.01L161.6 3235.36H167.118C170.017 3235.36 172.838 3234.43 175.165 3232.7L181.492 3228C181.95 3227.65 182.605 3227.94 182.664 3228.51ZM168.548 3243.42C168.075 3243.36 167.598 3243.33 167.118 3243.33H164.571L163.358 3247.85L166.905 3249.51L168.495 3243.57C168.509 3243.52 168.527 3243.47 168.548 3243.42Z" fill="black"/>
</g>
<g opacity="0.09">
<path fill-rule="evenodd" clip-rule="evenodd" d="M165.964 4382.1C166.65 4375.51 166.65 4368.86 165.964 4362.27C165.72 4359.92 163.009 4358.73 161.112 4360.14L154.786 4364.84C152.858 4366.27 150.52 4367.05 148.118 4367.05H142.214C141.15 4367.05 140.287 4367.91 140.287 4368.98V4375.4C140.287 4376.46 141.15 4377.33 142.214 4377.33H143.177L141.873 4382.19C141.728 4382.73 141.993 4383.3 142.502 4383.54L148.177 4386.18C148.486 4386.33 148.844 4386.33 149.154 4386.18C149.464 4386.04 149.694 4385.77 149.782 4385.44L151.729 4378.17C151.749 4378.09 151.762 4378.02 151.766 4377.94C152.842 4378.31 153.861 4378.85 154.786 4379.53L161.112 4384.24C163.009 4385.65 165.72 4384.46 165.964 4382.1ZM163.664 4362.51C164.334 4368.94 164.334 4375.43 163.664 4381.86C163.605 4382.43 162.95 4382.72 162.492 4382.38L156.165 4377.68C153.838 4375.95 151.017 4375.01 148.118 4375.01L142.6 4375.01L142.6 4369.36H148.118C151.017 4369.36 153.838 4368.43 156.165 4366.7L162.492 4362C162.95 4361.65 163.605 4361.94 163.664 4362.51ZM149.548 4377.42C149.075 4377.36 148.598 4377.33 148.118 4377.33H145.571L144.358 4381.85L147.905 4383.51L149.495 4377.57C149.509 4377.52 149.527 4377.47 149.548 4377.42Z" fill="black"/>
</g>
<g opacity="0.09">
<path fill-rule="evenodd" clip-rule="evenodd" d="M165.964 4382.1C166.65 4375.51 166.65 4368.86 165.964 4362.27C165.72 4359.92 163.009 4358.73 161.112 4360.14L154.786 4364.84C152.858 4366.27 150.52 4367.05 148.118 4367.05H142.214C141.15 4367.05 140.287 4367.91 140.287 4368.98V4375.4C140.287 4376.46 141.15 4377.33 142.214 4377.33H143.177L141.873 4382.19C141.728 4382.73 141.993 4383.3 142.502 4383.54L148.177 4386.18C148.486 4386.33 148.844 4386.33 149.154 4386.18C149.464 4386.04 149.694 4385.77 149.782 4385.44L151.729 4378.17C151.749 4378.09 151.762 4378.02 151.766 4377.94C152.842 4378.31 153.861 4378.85 154.786 4379.53L161.112 4384.24C163.009 4385.65 165.72 4384.46 165.964 4382.1ZM163.664 4362.51C164.334 4368.94 164.334 4375.43 163.664 4381.86C163.605 4382.43 162.95 4382.72 162.492 4382.38L156.165 4377.68C153.838 4375.95 151.017 4375.01 148.118 4375.01L142.6 4375.01L142.6 4369.36H148.118C151.017 4369.36 153.838 4368.43 156.165 4366.7L162.492 4362C162.95 4361.65 163.605 4361.94 163.664 4362.51ZM149.548 4377.42C149.075 4377.36 148.598 4377.33 148.118 4377.33H145.571L144.358 4381.85L147.905 4383.51L149.495 4377.57C149.509 4377.52 149.527 4377.47 149.548 4377.42Z" fill="black"/>
</g>
<g opacity="0.09">
<path d="M879.334 773.615C880.283 773.615 881.052 774.384 881.052 775.333V778.198H883.917C884.866 778.198 885.636 778.967 885.636 779.917C885.636 780.866 884.866 781.635 883.917 781.635H881.052V784.5C881.052 785.449 880.283 786.219 879.334 786.219C878.384 786.219 877.615 785.449 877.615 784.5V781.635H874.75C873.801 781.635 873.031 780.866 873.031 779.917C873.031 778.967 873.801 778.198 874.75 778.198H877.615V775.333C877.615 774.384 878.384 773.615 879.334 773.615Z" fill="black"/>
<path d="M899.959 783.927C899.959 782.661 898.933 781.635 897.667 781.635C896.401 781.635 895.375 782.661 895.375 783.927V784.5C895.375 785.766 896.401 786.792 897.667 786.792C898.933 786.792 899.959 785.766 899.959 784.5V783.927Z" fill="black"/>
<path d="M897.667 773.042C898.933 773.042 899.959 774.068 899.959 775.333V775.906C899.959 777.172 898.933 778.198 897.667 778.198C896.401 778.198 895.375 777.172 895.375 775.906V775.333C895.375 774.068 896.401 773.042 897.667 773.042Z" fill="black"/>
<path d="M904.542 779.917C904.542 781.182 903.516 782.208 902.25 782.208H901.677C900.412 782.208 899.386 781.182 899.386 779.917C899.386 778.651 900.412 777.625 901.677 777.625H902.25C903.516 777.625 904.542 778.651 904.542 779.917Z" fill="black"/>
<path d="M893.656 782.208C894.922 782.208 895.948 781.182 895.948 779.917C895.948 778.651 894.922 777.625 893.656 777.625H893.084C891.818 777.625 890.792 778.651 890.792 779.917C890.792 781.182 891.818 782.208 893.084 782.208H893.656Z" fill="black"/>
<path fill-rule="evenodd" clip-rule="evenodd" d="M890.219 763.875C890.219 762.926 889.449 762.156 888.5 762.156C887.551 762.156 886.781 762.926 886.781 763.875V767.282C883.484 767.327 880.187 767.502 876.899 767.807L876.139 767.877C870.658 768.385 866.438 772.936 866.345 778.44L866.317 780.075C866.208 786.471 866.724 792.863 867.856 799.159C868.418 802.281 871.134 804.552 874.306 804.552H874.812C877.643 804.552 880.208 802.884 881.356 800.296L883.787 794.816C885.6 790.728 891.401 790.728 893.214 794.816L895.644 800.296C896.792 802.884 899.357 804.552 902.188 804.552H902.695C905.866 804.552 908.583 802.281 909.144 799.159C910.276 792.863 910.792 786.471 910.684 780.075L910.656 778.44C910.563 772.936 906.342 768.385 900.861 767.877L900.101 767.807C896.814 767.502 893.517 767.327 890.219 767.282V763.875ZM877.216 771.23C884.723 770.534 892.278 770.534 899.784 771.23L900.544 771.3C904.279 771.646 907.155 774.748 907.219 778.498L907.247 780.133C907.351 786.306 906.854 792.474 905.761 798.551C905.494 800.035 904.203 801.115 902.695 801.115H902.188C900.717 801.115 899.383 800.247 898.787 798.902L896.356 793.422C893.334 786.609 883.666 786.609 880.644 793.422L878.214 798.902C877.617 800.247 876.284 801.115 874.812 801.115H874.306C872.798 801.115 871.506 800.035 871.24 798.551C870.147 792.474 869.649 786.306 869.754 780.133L869.782 778.498C869.845 774.748 872.721 771.646 876.456 771.3L877.216 771.23Z" fill="black"/>
</g>
<g opacity="0.09">
<path d="M860.334 1907.61C861.283 1907.61 862.052 1908.38 862.052 1909.33V1912.2H864.917C865.866 1912.2 866.636 1912.97 866.636 1913.92C866.636 1914.87 865.866 1915.64 864.917 1915.64H862.052V1918.5C862.052 1919.45 861.283 1920.22 860.334 1920.22C859.384 1920.22 858.615 1919.45 858.615 1918.5V1915.64H855.75C854.801 1915.64 854.031 1914.87 854.031 1913.92C854.031 1912.97 854.801 1912.2 855.75 1912.2H858.615V1909.33C858.615 1908.38 859.384 1907.61 860.334 1907.61Z" fill="black"/>
<path d="M880.959 1917.93C880.959 1916.66 879.933 1915.64 878.667 1915.64C877.401 1915.64 876.375 1916.66 876.375 1917.93V1918.5C876.375 1919.77 877.401 1920.79 878.667 1920.79C879.933 1920.79 880.959 1919.77 880.959 1918.5V1917.93Z" fill="black"/>
<path d="M878.667 1907.04C879.933 1907.04 880.959 1908.07 880.959 1909.33V1909.91C880.959 1911.17 879.933 1912.2 878.667 1912.2C877.401 1912.2 876.375 1911.17 876.375 1909.91V1909.33C876.375 1908.07 877.401 1907.04 878.667 1907.04Z" fill="black"/>
<path d="M885.542 1913.92C885.542 1915.18 884.516 1916.21 883.25 1916.21H882.677C881.412 1916.21 880.386 1915.18 880.386 1913.92C880.386 1912.65 881.412 1911.63 882.677 1911.63H883.25C884.516 1911.63 885.542 1912.65 885.542 1913.92Z" fill="black"/>
<path d="M874.656 1916.21C875.922 1916.21 876.948 1915.18 876.948 1913.92C876.948 1912.65 875.922 1911.63 874.656 1911.62H874.084C872.818 1911.62 871.792 1912.65 871.792 1913.92C871.792 1915.18 872.818 1916.21 874.084 1916.21H874.656Z" fill="black"/>
<path fill-rule="evenodd" clip-rule="evenodd" d="M871.219 1897.88C871.219 1896.93 870.449 1896.16 869.5 1896.16C868.551 1896.16 867.781 1896.93 867.781 1897.88V1901.28C864.484 1901.33 861.187 1901.5 857.899 1901.81L857.139 1901.88C851.658 1902.38 847.438 1906.94 847.345 1912.44L847.317 1914.08C847.208 1920.47 847.724 1926.86 848.856 1933.16C849.418 1936.28 852.134 1938.55 855.306 1938.55H855.812C858.643 1938.55 861.208 1936.88 862.356 1934.3L864.787 1928.82C866.6 1924.73 872.401 1924.73 874.214 1928.82L876.644 1934.3C877.792 1936.88 880.357 1938.55 883.188 1938.55H883.695C886.866 1938.55 889.583 1936.28 890.144 1933.16C891.276 1926.86 891.792 1920.47 891.684 1914.08L891.656 1912.44C891.563 1906.94 887.342 1902.38 881.861 1901.88L881.101 1901.81C877.814 1901.5 874.517 1901.33 871.219 1901.28V1897.88ZM858.216 1905.23C865.723 1904.53 873.278 1904.53 880.784 1905.23L881.544 1905.3C885.279 1905.65 888.155 1908.75 888.219 1912.5L888.247 1914.13C888.351 1920.31 887.854 1926.47 886.761 1932.55C886.494 1934.03 885.203 1935.11 883.695 1935.11H883.188C881.717 1935.11 880.383 1934.25 879.787 1932.9L877.356 1927.42C874.334 1920.61 864.666 1920.61 861.644 1927.42L859.214 1932.9C858.617 1934.25 857.284 1935.11 855.812 1935.11H855.306C853.798 1935.11 852.506 1934.03 852.24 1932.55C851.147 1926.47 850.649 1920.31 850.754 1914.13L850.782 1912.5C850.845 1908.75 853.721 1905.65 857.456 1905.3L858.216 1905.23Z" fill="black"/>
</g>
<g opacity="0.09">
<path d="M841.334 3041.61C842.283 3041.61 843.052 3042.38 843.052 3043.33V3046.2H845.917C846.866 3046.2 847.636 3046.97 847.636 3047.92C847.636 3048.87 846.866 3049.64 845.917 3049.64H843.052V3052.5C843.052 3053.45 842.283 3054.22 841.334 3054.22C840.384 3054.22 839.615 3053.45 839.615 3052.5V3049.64H836.75C835.801 3049.64 835.031 3048.87 835.031 3047.92C835.031 3046.97 835.801 3046.2 836.75 3046.2H839.615V3043.33C839.615 3042.38 840.384 3041.61 841.334 3041.61Z" fill="black"/>
<path d="M861.959 3051.93C861.959 3050.66 860.933 3049.64 859.667 3049.64C858.401 3049.64 857.375 3050.66 857.375 3051.93V3052.5C857.375 3053.77 858.401 3054.79 859.667 3054.79C860.933 3054.79 861.959 3053.77 861.959 3052.5V3051.93Z" fill="black"/>
<path d="M859.667 3041.04C860.933 3041.04 861.959 3042.07 861.959 3043.33V3043.91C861.959 3045.17 860.933 3046.2 859.667 3046.2C858.401 3046.2 857.375 3045.17 857.375 3043.91V3043.33C857.375 3042.07 858.401 3041.04 859.667 3041.04Z" fill="black"/>
<path d="M866.542 3047.92C866.542 3049.18 865.516 3050.21 864.25 3050.21H863.677C862.412 3050.21 861.386 3049.18 861.386 3047.92C861.386 3046.65 862.412 3045.63 863.677 3045.63H864.25C865.516 3045.63 866.542 3046.65 866.542 3047.92Z" fill="black"/>
<path d="M855.656 3050.21C856.922 3050.21 857.948 3049.18 857.948 3047.92C857.948 3046.65 856.922 3045.63 855.656 3045.62H855.084C853.818 3045.62 852.792 3046.65 852.792 3047.92C852.792 3049.18 853.818 3050.21 855.084 3050.21H855.656Z" fill="black"/>
<path fill-rule="evenodd" clip-rule="evenodd" d="M852.219 3031.88C852.219 3030.93 851.449 3030.16 850.5 3030.16C849.551 3030.16 848.781 3030.93 848.781 3031.88V3035.28C845.484 3035.33 842.187 3035.5 838.899 3035.81L838.139 3035.88C832.658 3036.38 828.438 3040.94 828.345 3046.44L828.317 3048.08C828.208 3054.47 828.724 3060.86 829.856 3067.16C830.418 3070.28 833.134 3072.55 836.306 3072.55H836.812C839.643 3072.55 842.208 3070.88 843.356 3068.3L845.787 3062.82C847.6 3058.73 853.401 3058.73 855.214 3062.82L857.644 3068.3C858.792 3070.88 861.357 3072.55 864.188 3072.55H864.695C867.866 3072.55 870.583 3070.28 871.144 3067.16C872.276 3060.86 872.792 3054.47 872.684 3048.08L872.656 3046.44C872.563 3040.94 868.342 3036.38 862.861 3035.88L862.101 3035.81C858.814 3035.5 855.517 3035.33 852.219 3035.28V3031.88ZM839.216 3039.23C846.723 3038.53 854.278 3038.53 861.784 3039.23L862.544 3039.3C866.279 3039.65 869.155 3042.75 869.219 3046.5L869.247 3048.13C869.351 3054.31 868.854 3060.47 867.761 3066.55C867.494 3068.03 866.203 3069.11 864.695 3069.11H864.188C862.717 3069.11 861.383 3068.25 860.787 3066.9L858.356 3061.42C855.334 3054.61 845.666 3054.61 842.644 3061.42L840.214 3066.9C839.617 3068.25 838.284 3069.11 836.812 3069.11H836.306C834.798 3069.11 833.506 3068.03 833.24 3066.55C832.147 3060.47 831.649 3054.31 831.754 3048.13L831.782 3046.5C831.845 3042.75 834.721 3039.65 838.456 3039.3L839.216 3039.23Z" fill="black"/>
</g>
<g opacity="0.09">
<path d="M822.334 4175.61C823.283 4175.61 824.052 4176.38 824.052 4177.33V4180.2H826.917C827.866 4180.2 828.636 4180.97 828.636 4181.92C828.636 4182.87 827.866 4183.64 826.917 4183.64H824.052V4186.5C824.052 4187.45 823.283 4188.22 822.334 4188.22C821.384 4188.22 820.615 4187.45 820.615 4186.5V4183.64H817.75C816.801 4183.64 816.031 4182.87 816.031 4181.92C816.031 4180.97 816.801 4180.2 817.75 4180.2H820.615V4177.33C820.615 4176.38 821.384 4175.61 822.334 4175.61Z" fill="black"/>
<path d="M842.959 4185.93C842.959 4184.66 841.933 4183.64 840.667 4183.64C839.401 4183.64 838.375 4184.66 838.375 4185.93V4186.5C838.375 4187.77 839.401 4188.79 840.667 4188.79C841.933 4188.79 842.959 4187.77 842.959 4186.5V4185.93Z" fill="black"/>
<path d="M840.667 4175.04C841.933 4175.04 842.959 4176.07 842.959 4177.33V4177.91C842.959 4179.17 841.933 4180.2 840.667 4180.2C839.401 4180.2 838.375 4179.17 838.375 4177.91V4177.33C838.375 4176.07 839.401 4175.04 840.667 4175.04Z" fill="black"/>
<path d="M847.542 4181.92C847.542 4183.18 846.516 4184.21 845.25 4184.21H844.677C843.412 4184.21 842.386 4183.18 842.386 4181.92C842.386 4180.65 843.412 4179.63 844.677 4179.63H845.25C846.516 4179.63 847.542 4180.65 847.542 4181.92Z" fill="black"/>
<path d="M836.656 4184.21C837.922 4184.21 838.948 4183.18 838.948 4181.92C838.948 4180.65 837.922 4179.63 836.656 4179.62H836.084C834.818 4179.62 833.792 4180.65 833.792 4181.92C833.792 4183.18 834.818 4184.21 836.084 4184.21H836.656Z" fill="black"/>
<path fill-rule="evenodd" clip-rule="evenodd" d="M833.219 4165.88C833.219 4164.93 832.449 4164.16 831.5 4164.16C830.551 4164.16 829.781 4164.93 829.781 4165.88V4169.28C826.484 4169.33 823.187 4169.5 819.899 4169.81L819.139 4169.88C813.658 4170.38 809.438 4174.94 809.345 4180.44L809.317 4182.08C809.208 4188.47 809.724 4194.86 810.856 4201.16C811.418 4204.28 814.134 4206.55 817.306 4206.55H817.812C820.643 4206.55 823.208 4204.88 824.356 4202.3L826.787 4196.82C828.6 4192.73 834.401 4192.73 836.214 4196.82L838.644 4202.3C839.792 4204.88 842.357 4206.55 845.188 4206.55H845.695C848.866 4206.55 851.583 4204.28 852.144 4201.16C853.276 4194.86 853.792 4188.47 853.684 4182.08L853.656 4180.44C853.563 4174.94 849.342 4170.38 843.861 4169.88L843.101 4169.81C839.814 4169.5 836.517 4169.33 833.219 4169.28V4165.88ZM820.216 4173.23C827.723 4172.53 835.278 4172.53 842.784 4173.23L843.544 4173.3C847.279 4173.65 850.155 4176.75 850.219 4180.5L850.247 4182.13C850.351 4188.31 849.854 4194.47 848.761 4200.55C848.494 4202.03 847.203 4203.11 845.695 4203.11H845.188C843.717 4203.11 842.383 4202.25 841.787 4200.9L839.356 4195.42C836.334 4188.61 826.666 4188.61 823.644 4195.42L821.214 4200.9C820.617 4202.25 819.284 4203.11 817.812 4203.11H817.306C815.798 4203.11 814.506 4202.03 814.24 4200.55C813.147 4194.47 812.649 4188.31 812.754 4182.13L812.782 4180.5C812.845 4176.75 815.721 4173.65 819.456 4173.3L820.216 4173.23Z" fill="black"/>
</g>
<g opacity="0.09">
<path d="M822.334 4175.61C823.283 4175.61 824.052 4176.38 824.052 4177.33V4180.2H826.917C827.866 4180.2 828.636 4180.97 828.636 4181.92C828.636 4182.87 827.866 4183.64 826.917 4183.64H824.052V4186.5C824.052 4187.45 823.283 4188.22 822.334 4188.22C821.384 4188.22 820.615 4187.45 820.615 4186.5V4183.64H817.75C816.801 4183.64 816.031 4182.87 816.031 4181.92C816.031 4180.97 816.801 4180.2 817.75 4180.2H820.615V4177.33C820.615 4176.38 821.384 4175.61 822.334 4175.61Z" fill="black"/>
<path d="M842.959 4185.93C842.959 4184.66 841.933 4183.64 840.667 4183.64C839.401 4183.64 838.375 4184.66 838.375 4185.93V4186.5C838.375 4187.77 839.401 4188.79 840.667 4188.79C841.933 4188.79 842.959 4187.77 842.959 4186.5V4185.93Z" fill="black"/>
<path d="M840.667 4175.04C841.933 4175.04 842.959 4176.07 842.959 4177.33V4177.91C842.959 4179.17 841.933 4180.2 840.667 4180.2C839.401 4180.2 838.375 4179.17 838.375 4177.91V4177.33C838.375 4176.07 839.401 4175.04 840.667 4175.04Z" fill="black"/>
<path d="M847.542 4181.92C847.542 4183.18 846.516 4184.21 845.25 4184.21H844.677C843.412 4184.21 842.386 4183.18 842.386 4181.92C842.386 4180.65 843.412 4179.63 844.677 4179.63H845.25C846.516 4179.63 847.542 4180.65 847.542 4181.92Z" fill="black"/>
<path d="M836.656 4184.21C837.922 4184.21 838.948 4183.18 838.948 4181.92C838.948 4180.65 837.922 4179.63 836.656 4179.62H836.084C834.818 4179.62 833.792 4180.65 833.792 4181.92C833.792 4183.18 834.818 4184.21 836.084 4184.21H836.656Z" fill="black"/>
<path fill-rule="evenodd" clip-rule="evenodd" d="M833.219 4165.88C833.219 4164.93 832.449 4164.16 831.5 4164.16C830.551 4164.16 829.781 4164.93 829.781 4165.88V4169.28C826.484 4169.33 823.187 4169.5 819.899 4169.81L819.139 4169.88C813.658 4170.38 809.438 4174.94 809.345 4180.44L809.317 4182.08C809.208 4188.47 809.724 4194.86 810.856 4201.16C811.418 4204.28 814.134 4206.55 817.306 4206.55H817.812C820.643 4206.55 823.208 4204.88 824.356 4202.3L826.787 4196.82C828.6 4192.73 834.401 4192.73 836.214 4196.82L838.644 4202.3C839.792 4204.88 842.357 4206.55 845.188 4206.55H845.695C848.866 4206.55 851.583 4204.28 852.144 4201.16C853.276 4194.86 853.792 4188.47 853.684 4182.08L853.656 4180.44C853.563 4174.94 849.342 4170.38 843.861 4169.88L843.101 4169.81C839.814 4169.5 836.517 4169.33 833.219 4169.28V4165.88ZM820.216 4173.23C827.723 4172.53 835.278 4172.53 842.784 4173.23L843.544 4173.3C847.279 4173.65 850.155 4176.75 850.219 4180.5L850.247 4182.13C850.351 4188.31 849.854 4194.47 848.761 4200.55C848.494 4202.03 847.203 4203.11 845.695 4203.11H845.188C843.717 4203.11 842.383 4202.25 841.787 4200.9L839.356 4195.42C836.334 4188.61 826.666 4188.61 823.644 4195.42L821.214 4200.9C820.617 4202.25 819.284 4203.11 817.812 4203.11H817.306C815.798 4203.11 814.506 4202.03 814.24 4200.55C813.147 4194.47 812.649 4188.31 812.754 4182.13L812.782 4180.5C812.845 4176.75 815.721 4173.65 819.456 4173.3L820.216 4173.23Z" fill="black"/>
</g>
<g opacity="0.09">
<path fill-rule="evenodd" clip-rule="evenodd" d="M1018.76 445.651C1018.76 445.879 1018.8 446.097 1018.88 446.295C1015.86 448.875 1013.94 452.713 1013.94 457C1013.94 461.287 1015.86 465.126 1018.88 467.705C1018.8 467.903 1018.76 468.121 1018.76 468.349L1018.95 474.365C1018.99 475.765 1019.92 476.983 1021.26 477.395C1025.65 478.746 1030.35 478.746 1034.74 477.395C1036.08 476.983 1037.01 475.765 1037.06 474.365L1037.24 468.349C1037.24 468.121 1037.2 467.903 1037.12 467.705C1039.12 466.001 1040.63 463.749 1041.43 461.18C1041.72 461.492 1042.13 461.688 1042.58 461.688C1043.45 461.688 1044.15 460.988 1044.15 460.125V453.875C1044.15 453.012 1043.45 452.313 1042.58 452.313C1042.13 452.313 1041.72 452.508 1041.43 452.82C1040.63 450.252 1039.12 447.999 1037.12 446.295C1037.2 446.097 1037.24 445.879 1037.24 445.651L1037.06 439.635C1037.01 438.235 1036.08 437.017 1034.74 436.605C1030.35 435.254 1025.65 435.254 1021.26 436.605C1019.92 437.017 1018.99 438.235 1018.95 439.635L1018.76 445.651ZM1033.83 439.592C1030.03 438.425 1025.97 438.425 1022.17 439.592C1022.11 439.611 1022.07 439.666 1022.07 439.73L1021.93 444.312C1023.77 443.431 1025.83 442.938 1028 442.938C1030.17 442.938 1032.23 443.431 1034.07 444.312L1033.93 439.73C1033.93 439.666 1033.89 439.611 1033.83 439.592ZM1022.07 474.27L1021.93 469.689C1023.77 470.569 1025.83 471.063 1028 471.063C1030.17 471.063 1032.23 470.569 1034.07 469.689L1033.93 474.27C1033.93 474.334 1033.89 474.389 1033.83 474.408C1030.03 475.575 1025.97 475.575 1022.17 474.408C1022.11 474.389 1022.07 474.334 1022.07 474.27ZM1028 446.063C1021.96 446.063 1017.06 450.959 1017.06 457C1017.06 463.041 1021.96 467.938 1028 467.938C1034.04 467.938 1038.94 463.041 1038.94 457C1038.94 450.959 1034.04 446.063 1028 446.063Z" fill="black"/>
</g>
<g opacity="0.09">
<path fill-rule="evenodd" clip-rule="evenodd" d="M999.763 1579.65C999.756 1579.88 999.798 1580.1 999.88 1580.3C996.856 1582.87 994.938 1586.71 994.938 1591C994.938 1595.29 996.856 1599.13 999.88 1601.7C999.798 1601.9 999.756 1602.12 999.763 1602.35L999.945 1608.36C999.987 1609.77 1000.92 1610.98 1002.26 1611.39C1006.65 1612.75 1011.35 1612.75 1015.74 1611.39C1017.08 1610.98 1018.01 1609.77 1018.06 1608.36L1018.24 1602.35C1018.24 1602.12 1018.2 1601.9 1018.12 1601.7C1020.12 1600 1021.63 1597.75 1022.43 1595.18C1022.72 1595.49 1023.13 1595.69 1023.58 1595.69C1024.45 1595.69 1025.15 1594.99 1025.15 1594.12V1587.87C1025.15 1587.01 1024.45 1586.31 1023.58 1586.31C1023.13 1586.31 1022.72 1586.51 1022.43 1586.82C1021.63 1584.25 1020.12 1582 1018.12 1580.3C1018.2 1580.1 1018.24 1579.88 1018.24 1579.65L1018.06 1573.64C1018.01 1572.23 1017.08 1571.02 1015.74 1570.6C1011.35 1569.25 1006.65 1569.25 1002.26 1570.6C1000.92 1571.02 999.987 1572.23 999.945 1573.64L999.763 1579.65ZM1014.83 1573.59C1011.03 1572.43 1006.97 1572.43 1003.17 1573.59C1003.11 1573.61 1003.07 1573.67 1003.07 1573.73L1002.93 1578.31C1004.77 1577.43 1006.83 1576.94 1009 1576.94C1011.17 1576.94 1013.23 1577.43 1015.07 1578.31L1014.93 1573.73C1014.93 1573.67 1014.89 1573.61 1014.83 1573.59ZM1003.07 1608.27L1002.93 1603.69C1004.77 1604.57 1006.83 1605.06 1009 1605.06C1011.17 1605.06 1013.23 1604.57 1015.07 1603.69L1014.93 1608.27C1014.93 1608.33 1014.89 1608.39 1014.83 1608.41C1011.03 1609.57 1006.97 1609.57 1003.17 1608.41C1003.11 1608.39 1003.07 1608.33 1003.07 1608.27ZM1009 1580.06C1002.96 1580.06 998.063 1584.96 998.063 1591C998.063 1597.04 1002.96 1601.94 1009 1601.94C1015.04 1601.94 1019.94 1597.04 1019.94 1591C1019.94 1584.96 1015.04 1580.06 1009 1580.06Z" fill="black"/>
</g>
<g opacity="0.09">
<path fill-rule="evenodd" clip-rule="evenodd" d="M980.763 2713.65C980.756 2713.88 980.798 2714.1 980.88 2714.3C977.856 2716.87 975.938 2720.71 975.938 2725C975.938 2729.29 977.856 2733.13 980.88 2735.7C980.798 2735.9 980.756 2736.12 980.763 2736.35L980.945 2742.36C980.987 2743.77 981.916 2744.98 983.256 2745.39C987.65 2746.75 992.35 2746.75 996.744 2745.39C998.084 2744.98 999.013 2743.77 999.055 2742.36L999.237 2736.35C999.244 2736.12 999.202 2735.9 999.12 2735.7C1001.12 2734 1002.63 2731.75 1003.43 2729.18C1003.72 2729.49 1004.13 2729.69 1004.58 2729.69C1005.45 2729.69 1006.15 2728.99 1006.15 2728.12V2721.87C1006.15 2721.01 1005.45 2720.31 1004.58 2720.31C1004.13 2720.31 1003.72 2720.51 1003.43 2720.82C1002.63 2718.25 1001.12 2716 999.12 2714.3C999.202 2714.1 999.244 2713.88 999.237 2713.65L999.055 2707.64C999.013 2706.23 998.084 2705.02 996.744 2704.6C992.35 2703.25 987.65 2703.25 983.256 2704.6C981.916 2705.02 980.987 2706.23 980.945 2707.64L980.763 2713.65ZM995.826 2707.59C992.03 2706.43 987.97 2706.43 984.174 2707.59C984.113 2707.61 984.071 2707.67 984.069 2707.73L983.93 2712.31C985.767 2711.43 987.826 2710.94 990 2710.94C992.174 2710.94 994.233 2711.43 996.07 2712.31L995.931 2707.73C995.93 2707.67 995.887 2707.61 995.826 2707.59ZM984.069 2742.27L983.93 2737.69C985.767 2738.57 987.826 2739.06 990 2739.06C992.174 2739.06 994.233 2738.57 996.07 2737.69L995.931 2742.27C995.93 2742.33 995.887 2742.39 995.826 2742.41C992.03 2743.57 987.97 2743.57 984.174 2742.41C984.113 2742.39 984.071 2742.33 984.069 2742.27ZM990 2714.06C983.959 2714.06 979.063 2718.96 979.063 2725C979.063 2731.04 983.959 2735.94 990 2735.94C996.041 2735.94 1000.94 2731.04 1000.94 2725C1000.94 2718.96 996.041 2714.06 990 2714.06Z" fill="black"/>
</g>
<g opacity="0.09">
<path fill-rule="evenodd" clip-rule="evenodd" d="M961.763 3847.65C961.756 3847.88 961.798 3848.1 961.88 3848.3C958.856 3850.87 956.938 3854.71 956.938 3859C956.938 3863.29 958.856 3867.13 961.88 3869.7C961.798 3869.9 961.756 3870.12 961.763 3870.35L961.945 3876.36C961.987 3877.77 962.916 3878.98 964.256 3879.39C968.65 3880.75 973.35 3880.75 977.744 3879.39C979.084 3878.98 980.013 3877.77 980.055 3876.36L980.237 3870.35C980.244 3870.12 980.202 3869.9 980.12 3869.7C982.117 3868 983.632 3865.75 984.431 3863.18C984.716 3863.49 985.127 3863.69 985.583 3863.69C986.446 3863.69 987.146 3862.99 987.146 3862.12V3855.87C987.146 3855.01 986.446 3854.31 985.583 3854.31C985.127 3854.31 984.716 3854.51 984.431 3854.82C983.632 3852.25 982.117 3850 980.12 3848.3C980.202 3848.1 980.244 3847.88 980.237 3847.65L980.055 3841.64C980.013 3840.23 979.084 3839.02 977.744 3838.6C973.35 3837.25 968.65 3837.25 964.256 3838.6C962.916 3839.02 961.987 3840.23 961.945 3841.64L961.763 3847.65ZM976.826 3841.59C973.03 3840.43 968.97 3840.43 965.174 3841.59C965.113 3841.61 965.071 3841.67 965.069 3841.73L964.93 3846.31C966.767 3845.43 968.826 3844.94 971 3844.94C973.174 3844.94 975.233 3845.43 977.07 3846.31L976.931 3841.73C976.93 3841.67 976.887 3841.61 976.826 3841.59ZM965.069 3876.27L964.93 3871.69C966.767 3872.57 968.826 3873.06 971 3873.06C973.174 3873.06 975.233 3872.57 977.07 3871.69L976.931 3876.27C976.93 3876.33 976.887 3876.39 976.826 3876.41C973.03 3877.57 968.97 3877.57 965.174 3876.41C965.113 3876.39 965.071 3876.33 965.069 3876.27ZM971 3848.06C964.959 3848.06 960.063 3852.96 960.063 3859C960.063 3865.04 964.959 3869.94 971 3869.94C977.041 3869.94 981.938 3865.04 981.938 3859C981.938 3852.96 977.041 3848.06 971 3848.06Z" fill="black"/>
</g>
<g opacity="0.09">
<path fill-rule="evenodd" clip-rule="evenodd" d="M961.763 3847.65C961.756 3847.88 961.798 3848.1 961.88 3848.3C958.856 3850.87 956.938 3854.71 956.938 3859C956.938 3863.29 958.856 3867.13 961.88 3869.7C961.798 3869.9 961.756 3870.12 961.763 3870.35L961.945 3876.36C961.987 3877.77 962.916 3878.98 964.256 3879.39C968.65 3880.75 973.35 3880.75 977.744 3879.39C979.084 3878.98 980.013 3877.77 980.055 3876.36L980.237 3870.35C980.244 3870.12 980.202 3869.9 980.12 3869.7C982.117 3868 983.632 3865.75 984.431 3863.18C984.716 3863.49 985.127 3863.69 985.583 3863.69C986.446 3863.69 987.146 3862.99 987.146 3862.12V3855.87C987.146 3855.01 986.446 3854.31 985.583 3854.31C985.127 3854.31 984.716 3854.51 984.431 3854.82C983.632 3852.25 982.117 3850 980.12 3848.3C980.202 3848.1 980.244 3847.88 980.237 3847.65L980.055 3841.64C980.013 3840.23 979.084 3839.02 977.744 3838.6C973.35 3837.25 968.65 3837.25 964.256 3838.6C962.916 3839.02 961.987 3840.23 961.945 3841.64L961.763 3847.65ZM976.826 3841.59C973.03 3840.43 968.97 3840.43 965.174 3841.59C965.113 3841.61 965.071 3841.67 965.069 3841.73L964.93 3846.31C966.767 3845.43 968.826 3844.94 971 3844.94C973.174 3844.94 975.233 3845.43 977.07 3846.31L976.931 3841.73C976.93 3841.67 976.887 3841.61 976.826 3841.59ZM965.069 3876.27L964.93 3871.69C966.767 3872.57 968.826 3873.06 971 3873.06C973.174 3873.06 975.233 3872.57 977.07 3871.69L976.931 3876.27C976.93 3876.33 976.887 3876.39 976.826 3876.41C973.03 3877.57 968.97 3877.57 965.174 3876.41C965.113 3876.39 965.071 3876.33 965.069 3876.27ZM971 3848.06C964.959 3848.06 960.063 3852.96 960.063 3859C960.063 3865.04 964.959 3869.94 971 3869.94C977.041 3869.94 981.938 3865.04 981.938 3859C981.938 3852.96 977.041 3848.06 971 3848.06Z" fill="black"/>
</g>
</g>
<defs>
<clipPath id="clip0_178_620">
<rect width="1440" height="4458" fill="white"/>
</clipPath>
</defs>
</svg>
